<svg width="26" height="26" viewBox="0 0 26 26" fill="none" xmlns="http://www.w3.org/2000/svg">
<path fill-rule="evenodd" clip-rule="evenodd" d="M18.5612 10.2809H23.7504C24.3462 10.2809 24.8337 10.7684 24.8337 11.3642L24.8012 11.6567L22.0495 21.6992C21.7895 22.6092 20.9554 23.2809 19.9587 23.2809H5.87537C4.8787 23.2809 4.04453 22.6092 3.79537 21.6992L1.0437 11.6567C1.0112 11.5592 1.00037 11.4617 1.00037 11.3642C1.00037 10.7684 1.48787 10.2809 2.0837 10.2809H7.27287L12.0179 3.18507C12.2237 2.8709 12.5704 2.71924 12.917 2.71924C13.2637 2.71924 13.6104 2.8709 13.8162 3.17424L18.5612 10.2809ZM15.9504 10.2809L12.917 5.73091L9.88372 10.2809H15.9504ZM19.9587 21.1142L5.8862 21.1251L3.50287 12.4476H22.342L19.9587 21.1142ZM10.7504 16.7809C10.7504 15.5892 11.7254 14.6142 12.917 14.6142C14.1087 14.6142 15.0837 15.5892 15.0837 16.7809C15.0837 17.9726 14.1087 18.9476 12.917 18.9476C11.7254 18.9476 10.7504 17.9726 10.7504 16.7809Z" fill="black" fill-opacity="0.54"/>
</svg>
