<svg width="26" height="26" viewBox="0 0 26 26" fill="none" xmlns="http://www.w3.org/2000/svg">
<path fill-rule="evenodd" clip-rule="evenodd" d="M19.6578 12.9673C19.2895 13.639 18.5745 14.0832 17.762 14.0832H9.69118L8.49951 16.2498H21.4995V18.4165H8.49951C6.85285 18.4165 5.81285 16.6507 6.60368 15.199L8.06618 12.5557L4.16618 4.33317H1.99951V2.1665H5.54201L6.56035 4.33317H22.5937C23.417 4.33317 23.937 5.2215 23.5362 5.9365L19.6578 12.9673ZM20.752 6.49984H7.58953L10.157 11.9165H17.762L20.752 6.49984ZM8.49949 19.4998C7.30783 19.4998 6.34366 20.4748 6.34366 21.6665C6.34366 22.8582 7.30783 23.8332 8.49949 23.8332C9.69116 23.8332 10.6662 22.8582 10.6662 21.6665C10.6662 20.4748 9.69116 19.4998 8.49949 19.4998ZM17.177 21.6665C17.177 20.4748 18.1412 19.4998 19.3328 19.4998C20.5245 19.4998 21.4995 20.4748 21.4995 21.6665C21.4995 22.8582 20.5245 23.8332 19.3328 23.8332C18.1412 23.8332 17.177 22.8582 17.177 21.6665Z" fill="black" fill-opacity="0.54"/>
</svg>
