<svg width="20" height="20" viewBox="0 0 20 20" fill="none" xmlns="http://www.w3.org/2000/svg">
<path fill-rule="evenodd" clip-rule="evenodd" d="M15.2469 9.97508C14.9636 10.4917 14.4136 10.8334 13.7886 10.8334H7.58024L6.66357 12.5001H16.6636V14.1667H6.66357C5.39691 14.1667 4.59691 12.8084 5.20524 11.6917L6.33024 9.65841L3.33024 3.33341H1.66357V1.66675H4.38857L5.17191 3.33341H17.5052C18.1386 3.33341 18.5386 4.01675 18.2302 4.56675L15.2469 9.97508ZM16.0885 5.00008H5.96355L7.93855 9.16675H13.7885L16.0885 5.00008ZM6.66361 15.0001C5.74695 15.0001 5.00528 15.7501 5.00528 16.6667C5.00528 17.5834 5.74695 18.3334 6.66361 18.3334C7.58028 18.3334 8.33028 17.5834 8.33028 16.6667C8.33028 15.7501 7.58028 15.0001 6.66361 15.0001ZM13.3386 16.6667C13.3386 15.7501 14.0803 15.0001 14.9969 15.0001C15.9136 15.0001 16.6636 15.7501 16.6636 16.6667C16.6636 17.5834 15.9136 18.3334 14.9969 18.3334C14.0803 18.3334 13.3386 17.5834 13.3386 16.6667Z" fill="#333333"/>
</svg>
