<svg width="18" height="18" viewBox="0 0 18 18" fill="none" xmlns="http://www.w3.org/2000/svg">
<path fill-rule="evenodd" clip-rule="evenodd" d="M1.63636 1.63636V3.27273H16.3636V1.63636H1.63636ZM0.818182 0C0.366313 0 0 0.366313 0 0.818182V4.09091C0 4.54278 0.366313 4.90909 0.818182 4.90909H17.1818C17.6337 4.90909 18 4.54278 18 4.09091V0.818182C18 0.366313 17.6337 0 17.1818 0H0.818182Z" fill="#828282"/>
<path fill-rule="evenodd" clip-rule="evenodd" d="M1.63636 14.7272V16.3635H16.3636V14.7272H1.63636ZM0.818182 13.0908C0.366313 13.0908 0 13.4571 0 13.909V17.1817C0 17.6336 0.366313 17.9999 0.818182 17.9999H17.1818C17.6337 17.9999 18 17.6336 18 17.1817V13.909C18 13.4571 17.6337 13.0908 17.1818 13.0908H0.818182Z" fill="#828282"/>
<path fill-rule="evenodd" clip-rule="evenodd" d="M1.63636 8.18177V9.81814H16.3636V8.18177H1.63636ZM0.818182 6.54541C0.366313 6.54541 0 6.91172 0 7.36359V10.6363C0 11.0882 0.366313 11.4545 0.818182 11.4545H17.1818C17.6337 11.4545 18 11.0882 18 10.6363V7.36359C18 6.91172 17.6337 6.54541 17.1818 6.54541H0.818182Z" fill="#828282"/>
</svg>
