<svg width="23" height="22" viewBox="0 0 23 22" fill="none" xmlns="http://www.w3.org/2000/svg">
<path fill-rule="evenodd" clip-rule="evenodd" d="M1.88571 9.74265V12.2569H4.4V9.74265H1.88571ZM0.785714 7.85693C0.351776 7.85693 0 8.20871 0 8.64265V13.3569C0 13.7909 0.351776 14.1426 0.785714 14.1426H5.5C5.93394 14.1426 6.28571 13.7909 6.28571 13.3569V8.64265C6.28571 8.20871 5.93394 7.85693 5.5 7.85693H0.785714Z" fill="#828282"/>
<path fill-rule="evenodd" clip-rule="evenodd" d="M9.88571 9.74265V12.2569H12.4V9.74265H9.88571ZM8.78571 7.85693C8.35178 7.85693 8 8.20871 8 8.64265V13.3569C8 13.7909 8.35178 14.1426 8.78571 14.1426H13.5C13.9339 14.1426 14.2857 13.7909 14.2857 13.3569V8.64265C14.2857 8.20871 13.9339 7.85693 13.5 7.85693H8.78571Z" fill="#828282"/>
<path fill-rule="evenodd" clip-rule="evenodd" d="M17.8857 9.74265V12.2569H20.4V9.74265H17.8857ZM16.7857 7.85693C16.3518 7.85693 16 8.20871 16 8.64265V13.3569C16 13.7909 16.3518 14.1426 16.7857 14.1426H21.5C21.9339 14.1426 22.2857 13.7909 22.2857 13.3569V8.64265C22.2857 8.20871 21.9339 7.85693 21.5 7.85693H16.7857Z" fill="#828282"/>
<path fill-rule="evenodd" clip-rule="evenodd" d="M1.88571 1.88571V4.4H4.4V1.88571H1.88571ZM0.785714 0C0.351776 0 0 0.351776 0 0.785714V5.5C0 5.93394 0.351776 6.28571 0.785714 6.28571H5.5C5.93394 6.28571 6.28571 5.93394 6.28571 5.5V0.785714C6.28571 0.351776 5.93394 0 5.5 0H0.785714Z" fill="#828282"/>
<path fill-rule="evenodd" clip-rule="evenodd" d="M9.88571 1.88571V4.4H12.4V1.88571H9.88571ZM8.78571 0C8.35178 0 8 0.351776 8 0.785714V5.5C8 5.93394 8.35178 6.28571 8.78571 6.28571H13.5C13.9339 6.28571 14.2857 5.93394 14.2857 5.5V0.785714C14.2857 0.351776 13.9339 0 13.5 0H8.78571Z" fill="#828282"/>
<path fill-rule="evenodd" clip-rule="evenodd" d="M17.8857 1.88571V4.4H20.4V1.88571H17.8857ZM16.7857 0C16.3518 0 16 0.351776 16 0.785714V5.5C16 5.93394 16.3518 6.28571 16.7857 6.28571H21.5C21.9339 6.28571 22.2857 5.93394 22.2857 5.5V0.785714C22.2857 0.351776 21.9339 0 21.5 0H16.7857Z" fill="#828282"/>
<path fill-rule="evenodd" clip-rule="evenodd" d="M1.88571 17.6001V20.1144H4.4V17.6001H1.88571ZM0.785714 15.7144C0.351776 15.7144 0 16.0661 0 16.5001V21.2144C0 21.6483 0.351776 22.0001 0.785714 22.0001H5.5C5.93394 22.0001 6.28571 21.6483 6.28571 21.2144V16.5001C6.28571 16.0661 5.93394 15.7144 5.5 15.7144H0.785714Z" fill="#828282"/>
<path fill-rule="evenodd" clip-rule="evenodd" d="M9.88571 17.6001V20.1144H12.4V17.6001H9.88571ZM8.78571 15.7144C8.35178 15.7144 8 16.0661 8 16.5001V21.2144C8 21.6483 8.35178 22.0001 8.78571 22.0001H13.5C13.9339 22.0001 14.2857 21.6483 14.2857 21.2144V16.5001C14.2857 16.0661 13.9339 15.7144 13.5 15.7144H8.78571Z" fill="#828282"/>
<path fill-rule="evenodd" clip-rule="evenodd" d="M17.8857 17.6001V20.1144H20.4V17.6001H17.8857ZM16.7857 15.7144C16.3518 15.7144 16 16.0661 16 16.5001V21.2144C16 21.6483 16.3518 22.0001 16.7857 22.0001H21.5C21.9339 22.0001 22.2857 21.6483 22.2857 21.2144V16.5001C22.2857 16.0661 21.9339 15.7144 21.5 15.7144H16.7857Z" fill="#828282"/>
</svg>
