<svg width="19" height="18" viewBox="0 0 19 18" fill="none" xmlns="http://www.w3.org/2000/svg">
<path fill-rule="evenodd" clip-rule="evenodd" d="M7 0H1C0.45 0 0 0.45 0 1V7C0 7.55 0.45 8 1 8H7C7.55 8 8 7.55 8 7V1C8 0.45 7.55 0 7 0ZM6 6V2H2V6H6Z" fill="#828282"/>
<path fill-rule="evenodd" clip-rule="evenodd" d="M7 10H1C0.45 10 0 10.45 0 11V17C0 17.55 0.45 18 1 18H7C7.55 18 8 17.55 8 17V11C8 10.45 7.55 10 7 10ZM6 16V12H2V16H6Z" fill="#828282"/>
<path fill-rule="evenodd" clip-rule="evenodd" d="M17.5 0H11.5C10.95 0 10.5 0.45 10.5 1V7C10.5 7.55 10.95 8 11.5 8H17.5C18.05 8 18.5 7.55 18.5 7V1C18.5 0.45 18.05 0 17.5 0ZM16.5 6V2H12.5V6H16.5Z" fill="#828282"/>
<path fill-rule="evenodd" clip-rule="evenodd" d="M17.5 10H11.5C10.95 10 10.5 10.45 10.5 11V17C10.5 17.55 10.95 18 11.5 18H17.5C18.05 18 18.5 17.55 18.5 17V11C18.5 10.45 18.05 10 17.5 10ZM16.5 16V12H12.5V16H16.5Z" fill="#828282"/>
</svg>
