<svg width="18" height="18" viewBox="0 0 18 18" fill="none" xmlns="http://www.w3.org/2000/svg">
<path fill-rule="evenodd" clip-rule="evenodd" d="M1.54286 7.97157V10.0287H3.6V7.97157H1.54286ZM0.642857 6.42871C0.287817 6.42871 0 6.71653 0 7.07157V10.9287C0 11.2838 0.287817 11.5716 0.642857 11.5716H4.5C4.85504 11.5716 5.14286 11.2838 5.14286 10.9287V7.07157C5.14286 6.71653 4.85504 6.42871 4.5 6.42871H0.642857Z" fill="#828282"/>
<path fill-rule="evenodd" clip-rule="evenodd" d="M1.54286 1.54286V3.6H3.6V1.54286H1.54286ZM0.642857 0C0.287817 0 0 0.287817 0 0.642857V4.5C0 4.85504 0.287817 5.14286 0.642857 5.14286H4.5C4.85504 5.14286 5.14286 4.85504 5.14286 4.5V0.642857C5.14286 0.287817 4.85504 0 4.5 0H0.642857Z" fill="#828282"/>
<path fill-rule="evenodd" clip-rule="evenodd" d="M1.54286 14.3998V16.4569H3.6V14.3998H1.54286ZM0.642857 12.8569C0.287817 12.8569 0 13.1448 0 13.4998V17.3569C0 17.712 0.287817 17.9998 0.642857 17.9998H4.5C4.85504 17.9998 5.14286 17.712 5.14286 17.3569V13.4998C5.14286 13.1448 4.85504 12.8569 4.5 12.8569H0.642857Z" fill="#828282"/>
<path fill-rule="evenodd" clip-rule="evenodd" d="M7.97157 7.97157V10.0287H16.4573V7.97157H7.97157ZM7.07157 6.42871C6.71653 6.42871 6.42871 6.71653 6.42871 7.07157V10.9287C6.42871 11.2838 6.71653 11.5716 7.07157 11.5716H17.3573C17.7123 11.5716 18.0001 11.2838 18.0001 10.9287V7.07157C18.0001 6.71653 17.7123 6.42871 17.3573 6.42871H7.07157Z" fill="#828282"/>
<path fill-rule="evenodd" clip-rule="evenodd" d="M7.97157 1.54286V3.6H16.4573V1.54286H7.97157ZM7.07157 0C6.71653 0 6.42871 0.287817 6.42871 0.642857V4.5C6.42871 4.85504 6.71653 5.14286 7.07157 5.14286H17.3573C17.7123 5.14286 18.0001 4.85504 18.0001 4.5V0.642857C18.0001 0.287817 17.7123 0 17.3573 0H7.07157Z" fill="#828282"/>
<path fill-rule="evenodd" clip-rule="evenodd" d="M7.97157 14.3998V16.4569H16.4573V14.3998H7.97157ZM7.07157 12.8569C6.71653 12.8569 6.42871 13.1448 6.42871 13.4998V17.3569C6.42871 17.712 6.71653 17.9998 7.07157 17.9998H17.3573C17.7123 17.9998 18.0001 17.712 18.0001 17.3569V13.4998C18.0001 13.1448 17.7123 12.8569 17.3573 12.8569H7.07157Z" fill="#828282"/>
</svg>
