<svg width="23" height="24" viewBox="0 0 23 24" fill="none" xmlns="http://www.w3.org/2000/svg">
<path fill-rule="evenodd" clip-rule="evenodd" d="M15.1234 15.0872H16.1436L22.5882 21.5456L20.6639 23.4702L14.2064 17.0247V16.0043L13.8577 15.6427C12.3854 16.9085 10.474 17.6706 8.39469 17.6706C3.75824 17.6706 0 13.9118 0 9.27474C0 4.63766 3.75824 0.878906 8.39469 0.878906C13.0311 0.878906 16.7894 4.63766 16.7894 9.27474C16.7894 11.3543 16.0274 13.266 14.7617 14.7385L15.1234 15.0872ZM2.58311 9.27487C2.58311 12.4911 5.179 15.0874 8.39481 15.0874C11.6106 15.0874 14.2065 12.4911 14.2065 9.27487C14.2065 6.05862 11.6106 3.46237 8.39481 3.46237C5.179 3.46237 2.58311 6.05862 2.58311 9.27487Z" fill="#333333"/>
</svg>
