<svg width="26" height="26" viewBox="0 0 26 26" fill="none" xmlns="http://www.w3.org/2000/svg">
<path fill-rule="evenodd" clip-rule="evenodd" d="M12.833 2.1665C6.85297 2.1665 1.99963 7.01984 1.99963 12.9998C1.99963 18.9798 6.85297 23.8332 12.833 23.8332C18.813 23.8332 23.6663 18.9798 23.6663 12.9998C23.6663 7.01984 18.813 2.1665 12.833 2.1665ZM11.7496 7.58317V9.74984H13.9163V7.58317H11.7496ZM11.7496 11.9165V18.4165H13.9163V11.9165H11.7496ZM4.1663 12.9998C4.1663 17.7773 8.05547 21.6665 12.833 21.6665C17.6105 21.6665 21.4996 17.7773 21.4996 12.9998C21.4996 8.22234 17.6105 4.33317 12.833 4.33317C8.05547 4.33317 4.1663 8.22234 4.1663 12.9998Z" fill="black" fill-opacity="0.54"/>
</svg>
