<svg width="158" height="40" viewBox="0 0 158 40" fill="none" xmlns="http://www.w3.org/2000/svg">
<path d="M5.54199 6.96094C5.54199 7.6901 5.29297 8.25 4.79492 8.64062C4.29688 9.02799 3.59538 9.22168 2.69043 9.22168H1.87012V12H0.97168V4.86133H2.86133C4.64844 4.86133 5.54199 5.5612 5.54199 6.96094ZM1.87012 8.4502H2.58789C3.29753 8.4502 3.81185 8.33626 4.13086 8.1084C4.44987 7.87728 4.60938 7.50781 4.60938 7C4.60938 6.54102 4.46126 6.19759 4.16504 5.96973C3.86882 5.74186 3.40658 5.62793 2.77832 5.62793H1.87012V8.4502ZM10.2148 12L10.0439 11.2383H10.0049C9.73796 11.5736 9.47103 11.8014 9.2041 11.9219C8.94043 12.0391 8.60677 12.0977 8.20312 12.0977C7.67578 12.0977 7.26237 11.9593 6.96289 11.6826C6.66341 11.4059 6.51367 11.0153 6.51367 10.5107C6.51367 9.4235 7.37142 8.85384 9.08691 8.80176L9.99512 8.76758V8.4502C9.99512 8.04329 9.90723 7.74382 9.73145 7.55176C9.55566 7.35645 9.27409 7.25879 8.88672 7.25879C8.60352 7.25879 8.33496 7.30111 8.08105 7.38574C7.8304 7.47038 7.5944 7.56478 7.37305 7.66895L7.10449 7.00977C7.37467 6.86654 7.66927 6.75423 7.98828 6.67285C8.30729 6.59147 8.62305 6.55078 8.93555 6.55078C9.58333 6.55078 10.0651 6.69401 10.3809 6.98047C10.6966 7.26693 10.8545 7.72266 10.8545 8.34766V12H10.2148ZM8.40332 11.3896C8.89486 11.3896 9.2806 11.2578 9.56055 10.9941C9.84375 10.7272 9.98535 10.3496 9.98535 9.86133V9.37793L9.19434 9.41211C8.5791 9.4349 8.12988 9.53255 7.84668 9.70508C7.56673 9.8776 7.42676 10.1494 7.42676 10.5205C7.42676 10.8005 7.51139 11.0153 7.68066 11.165C7.85319 11.3148 8.09408 11.3896 8.40332 11.3896ZM12.2412 8.78223C12.2412 7.58757 12.4202 6.66797 12.7783 6.02344C13.1396 5.37565 13.7061 4.96712 14.4775 4.79785C15.2035 4.65137 16.014 4.50163 16.9092 4.34863L17.0605 5.12012L16.4795 5.21289C15.7243 5.33659 15.1172 5.44564 14.6582 5.54004C14.1895 5.64421 13.8363 5.88346 13.5986 6.25781C13.3643 6.62891 13.2308 7.16927 13.1982 7.87891H13.2617C13.4505 7.61523 13.7012 7.40527 14.0137 7.24902C14.3294 7.08952 14.6647 7.00977 15.0195 7.00977C15.6771 7.00977 16.1914 7.22135 16.5625 7.64453C16.9336 8.06771 17.1191 8.66016 17.1191 9.42188C17.1191 10.2715 16.9027 10.9307 16.4697 11.3994C16.0368 11.8649 15.4362 12.0977 14.668 12.0977C13.9062 12.0977 13.3105 11.8063 12.8809 11.2236C12.4544 10.641 12.2412 9.82715 12.2412 8.78223ZM14.7412 11.3701C15.708 11.3701 16.1914 10.75 16.1914 9.50977C16.1914 8.33138 15.7536 7.74219 14.8779 7.74219C14.6403 7.74219 14.4092 7.79102 14.1846 7.88867C13.9632 7.98633 13.7614 8.11491 13.5791 8.27441C13.4001 8.43392 13.2536 8.6097 13.1396 8.80176C13.1396 10.514 13.6735 11.3701 14.7412 11.3701ZM23.1738 9.30957C23.1738 10.1852 22.9525 10.8688 22.5098 11.3604C22.0671 11.8519 21.4551 12.0977 20.6738 12.0977C20.1888 12.0977 19.7591 11.9854 19.3848 11.7607C19.0104 11.5329 18.7223 11.2074 18.5205 10.7842C18.3187 10.361 18.2178 9.86947 18.2178 9.30957C18.2178 8.43717 18.4359 7.75846 18.8721 7.27344C19.3083 6.78516 19.9202 6.54102 20.708 6.54102C21.4632 6.54102 22.0622 6.79004 22.5049 7.28809C22.9508 7.78288 23.1738 8.45671 23.1738 9.30957ZM19.126 9.30957C19.126 9.9834 19.2578 10.4961 19.5215 10.8477C19.7884 11.196 20.1807 11.3701 20.6982 11.3701C21.2093 11.3701 21.5983 11.196 21.8652 10.8477C22.1322 10.4961 22.2656 9.9834 22.2656 9.30957C22.2656 8.63574 22.1305 8.12956 21.8604 7.79102C21.5934 7.44922 21.2012 7.27832 20.6836 7.27832C19.6452 7.27832 19.126 7.9554 19.126 9.30957ZM28.2227 7.38086H26.4697V12H25.6006V7.38086H23.8721V6.63867H28.2227V7.38086ZM32.5977 12L32.4268 11.2383H32.3877C32.1208 11.5736 31.8538 11.8014 31.5869 11.9219C31.3232 12.0391 30.9896 12.0977 30.5859 12.0977C30.0586 12.0977 29.6452 11.9593 29.3457 11.6826C29.0462 11.4059 28.8965 11.0153 28.8965 10.5107C28.8965 9.4235 29.7542 8.85384 31.4697 8.80176L32.3779 8.76758V8.4502C32.3779 8.04329 32.29 7.74382 32.1143 7.55176C31.9385 7.35645 31.6569 7.25879 31.2695 7.25879C30.9863 7.25879 30.7178 7.30111 30.4639 7.38574C30.2132 7.47038 29.9772 7.56478 29.7559 7.66895L29.4873 7.00977C29.7575 6.86654 30.0521 6.75423 30.3711 6.67285C30.6901 6.59147 31.0059 6.55078 31.3184 6.55078C31.9661 6.55078 32.4479 6.69401 32.7637 6.98047C33.0794 7.26693 33.2373 7.72266 33.2373 8.34766V12H32.5977ZM30.7861 11.3896C31.2777 11.3896 31.6634 11.2578 31.9434 10.9941C32.2266 10.7272 32.3682 10.3496 32.3682 9.86133V9.37793L31.5771 9.41211C30.9619 9.4349 30.5127 9.53255 30.2295 9.70508C29.9495 9.8776 29.8096 10.1494 29.8096 10.5205C29.8096 10.8005 29.8942 11.0153 30.0635 11.165C30.236 11.3148 30.4769 11.3896 30.7861 11.3896ZM37.1826 12.0977C36.3786 12.0977 35.7471 11.8551 35.2881 11.3701C34.8324 10.8818 34.6045 10.2113 34.6045 9.3584C34.6045 8.49902 34.8177 7.81543 35.2441 7.30762C35.6706 6.79655 36.2467 6.54102 36.9727 6.54102C37.6465 6.54102 38.1836 6.75911 38.584 7.19531C38.9844 7.62826 39.1846 8.21582 39.1846 8.95801V9.49023H35.5127C35.529 10.099 35.6836 10.5612 35.9766 10.877C36.2695 11.1927 36.6846 11.3506 37.2217 11.3506C37.5081 11.3506 37.7799 11.3262 38.0371 11.2773C38.2943 11.2253 38.5954 11.126 38.9404 10.9795V11.751C38.6442 11.8779 38.3659 11.9674 38.1055 12.0195C37.8451 12.0716 37.5374 12.0977 37.1826 12.0977ZM36.9629 7.25879C36.543 7.25879 36.2109 7.39388 35.9668 7.66406C35.7227 7.93424 35.5778 8.31022 35.5322 8.79199H38.2617C38.2552 8.29069 38.1396 7.90983 37.915 7.64941C37.6904 7.389 37.373 7.25879 36.9629 7.25879ZM44.248 7.38086H42.4951V12H41.626V7.38086H39.8975V6.63867H44.248V7.38086ZM49.1699 6.63867V8.87012H52.0801V6.63867H52.959V12H52.0801V9.6123H49.1699V12H48.291V6.63867H49.1699ZM57.9785 12L57.8076 11.2383H57.7686C57.5016 11.5736 57.2347 11.8014 56.9678 11.9219C56.7041 12.0391 56.3704 12.0977 55.9668 12.0977C55.4395 12.0977 55.026 11.9593 54.7266 11.6826C54.4271 11.4059 54.2773 11.0153 54.2773 10.5107C54.2773 9.4235 55.1351 8.85384 56.8506 8.80176L57.7588 8.76758V8.4502C57.7588 8.04329 57.6709 7.74382 57.4951 7.55176C57.3193 7.35645 57.0378 7.25879 56.6504 7.25879C56.3672 7.25879 56.0986 7.30111 55.8447 7.38574C55.5941 7.47038 55.3581 7.56478 55.1367 7.66895L54.8682 7.00977C55.1383 6.86654 55.4329 6.75423 55.752 6.67285C56.071 6.59147 56.3867 6.55078 56.6992 6.55078C57.347 6.55078 57.8288 6.69401 58.1445 6.98047C58.4603 7.26693 58.6182 7.72266 58.6182 8.34766V12H57.9785ZM56.167 11.3896C56.6585 11.3896 57.0443 11.2578 57.3242 10.9941C57.6074 10.7272 57.749 10.3496 57.749 9.86133V9.37793L56.958 9.41211C56.3428 9.4349 55.8936 9.53255 55.6104 9.70508C55.3304 9.8776 55.1904 10.1494 55.1904 10.5205C55.1904 10.8005 55.2751 11.0153 55.4443 11.165C55.6169 11.3148 55.8577 11.3896 56.167 11.3896ZM4.55078 19.3809H2.79785V24H1.92871V19.3809H0.200195V18.6387H4.55078V19.3809ZM7.84668 24.0977C7.04264 24.0977 6.41113 23.8551 5.95215 23.3701C5.49642 22.8818 5.26855 22.2113 5.26855 21.3584C5.26855 20.499 5.48177 19.8154 5.9082 19.3076C6.33464 18.7965 6.91081 18.541 7.63672 18.541C8.31055 18.541 8.84766 18.7591 9.24805 19.1953C9.64844 19.6283 9.84863 20.2158 9.84863 20.958V21.4902H6.17676C6.19303 22.099 6.34766 22.5612 6.64062 22.877C6.93359 23.1927 7.34863 23.3506 7.88574 23.3506C8.1722 23.3506 8.44401 23.3262 8.70117 23.2773C8.95833 23.2253 9.25944 23.126 9.60449 22.9795V23.751C9.30827 23.8779 9.02995 23.9674 8.76953 24.0195C8.50911 24.0716 8.2015 24.0977 7.84668 24.0977ZM7.62695 19.2588C7.20703 19.2588 6.875 19.3939 6.63086 19.6641C6.38672 19.9342 6.24186 20.3102 6.19629 20.792H8.92578C8.91927 20.2907 8.80371 19.9098 8.5791 19.6494C8.35449 19.389 8.03711 19.2588 7.62695 19.2588ZM12.4805 21.2607L10.6299 18.6387H11.6309L13.0127 20.6602L14.3799 18.6387H15.3711L13.5205 21.2607L15.4736 24H14.4727L13.0127 21.8613L11.5332 24H10.542L12.4805 21.2607ZM17.3828 18.6387V20.8701H20.293V18.6387H21.1719V24H20.293V21.6123H17.3828V24H16.5039V18.6387H17.3828ZM27.5391 21.3096C27.5391 22.1852 27.3177 22.8688 26.875 23.3604C26.4323 23.8519 25.8203 24.0977 25.0391 24.0977C24.554 24.0977 24.1243 23.9854 23.75 23.7607C23.3757 23.5329 23.0876 23.2074 22.8857 22.7842C22.6839 22.361 22.583 21.8695 22.583 21.3096C22.583 20.4372 22.8011 19.7585 23.2373 19.2734C23.6735 18.7852 24.2855 18.541 25.0732 18.541C25.8285 18.541 26.4274 18.79 26.8701 19.2881C27.3161 19.7829 27.5391 20.4567 27.5391 21.3096ZM23.4912 21.3096C23.4912 21.9834 23.623 22.4961 23.8867 22.8477C24.1536 23.196 24.5459 23.3701 25.0635 23.3701C25.5745 23.3701 25.9635 23.196 26.2305 22.8477C26.4974 22.4961 26.6309 21.9834 26.6309 21.3096C26.6309 20.6357 26.4958 20.1296 26.2256 19.791C25.9587 19.4492 25.5664 19.2783 25.0488 19.2783C24.0104 19.2783 23.4912 19.9554 23.4912 21.3096ZM33.0176 24H32.124V19.3711H30.5469C30.4557 20.543 30.332 21.4642 30.1758 22.1348C30.0228 22.8021 29.821 23.292 29.5703 23.6045C29.3229 23.9137 29.0055 24.0684 28.6182 24.0684C28.4066 24.0684 28.252 24.0456 28.1543 24V23.3408C28.2227 23.3669 28.3138 23.3799 28.4277 23.3799C28.7858 23.3799 29.0706 23.0023 29.2822 22.2471C29.4971 21.4919 29.6647 20.2891 29.7852 18.6387H33.0176V24ZM39.375 21.3096C39.375 22.1852 39.1536 22.8688 38.7109 23.3604C38.2682 23.8519 37.6562 24.0977 36.875 24.0977C36.39 24.0977 35.9603 23.9854 35.5859 23.7607C35.2116 23.5329 34.9235 23.2074 34.7217 22.7842C34.5199 22.361 34.4189 21.8695 34.4189 21.3096C34.4189 20.4372 34.637 19.7585 35.0732 19.2734C35.5094 18.7852 36.1214 18.541 36.9092 18.541C37.6644 18.541 38.2633 18.79 38.7061 19.2881C39.152 19.7829 39.375 20.4567 39.375 21.3096ZM35.3271 21.3096C35.3271 21.9834 35.459 22.4961 35.7227 22.8477C35.9896 23.196 36.3818 23.3701 36.8994 23.3701C37.4105 23.3701 37.7995 23.196 38.0664 22.8477C38.3333 22.4961 38.4668 21.9834 38.4668 21.3096C38.4668 20.6357 38.3317 20.1296 38.0615 19.791C37.7946 19.4492 37.4023 19.2783 36.8848 19.2783C35.8464 19.2783 35.3271 19.9554 35.3271 21.3096ZM44.043 19.3809H41.6504V24H40.7715V18.6387H44.043V19.3809ZM45.9375 18.6387V21.9102L45.8984 22.8574L45.8789 23.1309L48.75 18.6387H49.8291V24H49.0088V20.8408L49.0234 20.1621L49.0479 19.5176L46.1963 24H45.1074V18.6387H45.9375ZM52.373 18.6387V21.9102L52.334 22.8574L52.3145 23.1309L55.1855 18.6387H56.2646V24H55.4443V20.8408L55.459 20.1621L55.4834 19.5176L52.6318 24H51.543V18.6387H52.373ZM4.65 32.42C5.04333 32.4933 5.36667 32.69 5.62 33.01C5.87333 33.33 6 33.6967 6 34.11C6 34.4833 5.90667 34.8133 5.72 35.1C5.54 35.38 5.27667 35.6 4.93 35.76C4.58333 35.92 4.17333 36 3.7 36H0.69V29.02H3.57C4.04333 29.02 4.45 29.0967 4.79 29.25C5.13667 29.4033 5.39667 29.6167 5.57 29.89C5.75 30.1633 5.84 30.4733 5.84 30.82C5.84 31.2267 5.73 31.5667 5.51 31.84C5.29667 32.1133 5.01 32.3067 4.65 32.42ZM2.09 31.92H3.37C3.70333 31.92 3.96 31.8433 4.14 31.69C4.32 31.5367 4.41 31.3167 4.41 31.03C4.41 30.7433 4.31667 30.52 4.13 30.36C3.95 30.2 3.69667 30.12 3.37 30.12H2.09V31.92ZM3.5 34.89C3.84 34.89 4.10333 34.81 4.29 34.65C4.48333 34.4833 4.58 34.2467 4.58 33.94C4.58 33.64 4.48 33.4033 4.28 33.23C4.08 33.0567 3.81 32.97 3.47 32.97H2.09V34.89H3.5ZM12.2658 33.1C12.2658 33.2867 12.2524 33.46 12.2258 33.62H8.17578C8.20245 34.0267 8.33911 34.3467 8.58578 34.58C8.83245 34.8133 9.13911 34.93 9.50578 34.93C10.0258 34.93 10.3958 34.7067 10.6158 34.26H12.1258C11.9658 34.7933 11.6591 35.2333 11.2058 35.58C10.7524 35.92 10.1958 36.09 9.53578 36.09C9.00245 36.09 8.52245 35.9733 8.09578 35.74C7.67578 35.5 7.34578 35.1633 7.10578 34.73C6.87245 34.2967 6.75578 33.7967 6.75578 33.23C6.75578 32.6567 6.87245 32.1533 7.10578 31.72C7.33911 31.2867 7.66578 30.9533 8.08578 30.72C8.50578 30.4867 8.98911 30.37 9.53578 30.37C10.0624 30.37 10.5324 30.4833 10.9458 30.71C11.3658 30.9367 11.6891 31.2567 11.9158 31.67C12.1491 32.0833 12.2658 32.56 12.2658 33.1ZM10.8158 32.77C10.8091 32.3833 10.6791 32.08 10.4258 31.86C10.1791 31.6333 9.86911 31.52 9.49578 31.52C9.14245 31.52 8.84578 31.6333 8.60578 31.86C8.36578 32.08 8.22245 32.3833 8.17578 32.77H10.8158ZM16.5277 36.07C15.8743 36.07 15.2743 35.9167 14.7277 35.61C14.181 35.3033 13.7477 34.88 13.4277 34.34C13.1077 33.7933 12.9477 33.1767 12.9477 32.49C12.9477 31.81 13.1077 31.2 13.4277 30.66C13.7477 30.1133 14.181 29.6867 14.7277 29.38C15.2743 29.0733 15.8743 28.92 16.5277 28.92C17.1877 28.92 17.7877 29.0733 18.3277 29.38C18.8743 29.6867 19.3043 30.1133 19.6177 30.66C19.9377 31.2 20.0977 31.81 20.0977 32.49C20.0977 33.1767 19.9377 33.7933 19.6177 34.34C19.3043 34.88 18.8743 35.3033 18.3277 35.61C17.781 35.9167 17.181 36.07 16.5277 36.07ZM16.5277 34.78C16.9477 34.78 17.3177 34.6867 17.6377 34.5C17.9577 34.3067 18.2077 34.04 18.3877 33.7C18.5677 33.3533 18.6577 32.95 18.6577 32.49C18.6577 32.03 18.5677 31.63 18.3877 31.29C18.2077 30.9433 17.9577 30.6767 17.6377 30.49C17.3177 30.3033 16.9477 30.21 16.5277 30.21C16.1077 30.21 15.7343 30.3033 15.4077 30.49C15.0877 30.6767 14.8377 30.9433 14.6577 31.29C14.4777 31.63 14.3877 32.03 14.3877 32.49C14.3877 32.95 14.4777 33.3533 14.6577 33.7C14.8377 34.04 15.0877 34.3067 15.4077 34.5C15.7343 34.6867 16.1077 34.78 16.5277 34.78ZM24.2092 30.38C24.8692 30.38 25.4026 30.59 25.8092 31.01C26.2159 31.4233 26.4192 32.0033 26.4192 32.75V36H25.0192V32.94C25.0192 32.5 24.9092 32.1633 24.6892 31.93C24.4692 31.69 24.1692 31.57 23.7892 31.57C23.4026 31.57 23.0959 31.69 22.8692 31.93C22.6492 32.1633 22.5392 32.5 22.5392 32.94V36H21.1392V30.46H22.5392V31.15C22.7259 30.91 22.9626 30.7233 23.2492 30.59C23.5426 30.45 23.8626 30.38 24.2092 30.38ZM29.1505 28.6V36H27.7505V28.6H29.1505ZM31.2438 29.8C30.9971 29.8 30.7904 29.7233 30.6238 29.57C30.4638 29.41 30.3838 29.2133 30.3838 28.98C30.3838 28.7467 30.4638 28.5533 30.6238 28.4C30.7904 28.24 30.9971 28.16 31.2438 28.16C31.4904 28.16 31.6938 28.24 31.8538 28.4C32.0204 28.5533 32.1038 28.7467 32.1038 28.98C32.1038 29.2133 32.0204 29.41 31.8538 29.57C31.6938 29.7233 31.4904 29.8 31.2438 29.8ZM31.9338 30.46V36H30.5338V30.46H31.9338ZM36.387 30.38C37.047 30.38 37.5803 30.59 37.987 31.01C38.3936 31.4233 38.597 32.0033 38.597 32.75V36H37.197V32.94C37.197 32.5 37.087 32.1633 36.867 31.93C36.647 31.69 36.347 31.57 35.967 31.57C35.5803 31.57 35.2736 31.69 35.047 31.93C34.827 32.1633 34.717 32.5 34.717 32.94V36H33.317V30.46H34.717V31.15C34.9036 30.91 35.1403 30.7233 35.427 30.59C35.7203 30.45 36.0403 30.38 36.387 30.38ZM45.0783 33.1C45.0783 33.2867 45.0649 33.46 45.0383 33.62H40.9883C41.0149 34.0267 41.1516 34.3467 41.3983 34.58C41.6449 34.8133 41.9516 34.93 42.3183 34.93C42.8383 34.93 43.2083 34.7067 43.4283 34.26H44.9383C44.7783 34.7933 44.4716 35.2333 44.0183 35.58C43.5649 35.92 43.0083 36.09 42.3483 36.09C41.8149 36.09 41.3349 35.9733 40.9083 35.74C40.4883 35.5 40.1583 35.1633 39.9183 34.73C39.6849 34.2967 39.5683 33.7967 39.5683 33.23C39.5683 32.6567 39.6849 32.1533 39.9183 31.72C40.1516 31.2867 40.4783 30.9533 40.8983 30.72C41.3183 30.4867 41.8016 30.37 42.3483 30.37C42.8749 30.37 43.3449 30.4833 43.7583 30.71C44.1783 30.9367 44.5016 31.2567 44.7283 31.67C44.9616 32.0833 45.0783 32.56 45.0783 33.1ZM43.6283 32.77C43.6216 32.3833 43.4916 32.08 43.2383 31.86C42.9916 31.6333 42.6816 31.52 42.3083 31.52C41.9549 31.52 41.6583 31.6333 41.4183 31.86C41.1783 32.08 41.0349 32.3833 40.9883 32.77H43.6283ZM46.7202 36.07C46.4668 36.07 46.2568 35.9933 46.0902 35.84C45.9302 35.68 45.8502 35.4833 45.8502 35.25C45.8502 35.0167 45.9302 34.8233 46.0902 34.67C46.2568 34.51 46.4668 34.43 46.7202 34.43C46.9668 34.43 47.1702 34.51 47.3302 34.67C47.4902 34.8233 47.5702 35.0167 47.5702 35.25C47.5702 35.4833 47.4902 35.68 47.3302 35.84C47.1702 35.9933 46.9668 36.07 46.7202 36.07ZM51.1078 36.07C50.6211 36.07 50.1811 35.9867 49.7878 35.82C49.4011 35.6533 49.0945 35.4133 48.8678 35.1C48.6411 34.7867 48.5245 34.4167 48.5178 33.99H50.0178C50.0378 34.2833 50.1378 34.5167 50.3178 34.69C50.5045 34.8633 50.7578 34.95 51.0778 34.95C51.4045 34.95 51.6611 34.87 51.8478 34.71C52.0345 34.55 52.1278 34.3367 52.1278 34.07C52.1278 33.8633 52.0645 33.6933 51.9378 33.56C51.8111 33.4267 51.6511 33.3233 51.4578 33.25C51.2711 33.17 51.0111 33.0833 50.6778 32.99C50.2245 32.8567 49.8545 32.7267 49.5678 32.6C49.2878 32.4667 49.0445 32.27 48.8378 32.01C48.6378 31.7433 48.5378 31.39 48.5378 30.95C48.5378 30.5367 48.6411 30.1767 48.8478 29.87C49.0545 29.5633 49.3445 29.33 49.7178 29.17C50.0911 29.0033 50.5178 28.92 50.9978 28.92C51.7178 28.92 52.3011 29.0967 52.7478 29.45C53.2011 29.7967 53.4511 30.2833 53.4978 30.91H51.9578C51.9445 30.65 51.8411 30.4433 51.6478 30.29C51.4611 30.13 51.2111 30.05 50.8978 30.05C50.6245 30.05 50.4045 30.1233 50.2378 30.27C50.0778 30.41 49.9978 30.62 49.9978 30.9C49.9978 31.0867 50.0578 31.2433 50.1778 31.37C50.3045 31.49 50.4578 31.59 50.6378 31.67C50.8245 31.7433 51.0845 31.83 51.4178 31.93C51.8711 32.0633 52.2411 32.1967 52.5278 32.33C52.8145 32.4633 53.0611 32.6633 53.2678 32.93C53.4745 33.1967 53.5778 33.5467 53.5778 33.98C53.5778 34.3533 53.4811 34.7 53.2878 35.02C53.0945 35.34 52.8111 35.5967 52.4378 35.79C52.0645 35.9767 51.6211 36.07 51.1078 36.07ZM57.9116 30.38C58.3316 30.38 58.7049 30.4733 59.0316 30.66C59.3582 30.84 59.6116 31.11 59.7916 31.47C59.9782 31.8233 60.0716 32.25 60.0716 32.75V36H58.6716V32.94C58.6716 32.5 58.5616 32.1633 58.3416 31.93C58.1216 31.69 57.8216 31.57 57.4416 31.57C57.0549 31.57 56.7482 31.69 56.5216 31.93C56.3016 32.1633 56.1916 32.5 56.1916 32.94V36H54.7916V28.6H56.1916V31.15C56.3716 30.91 56.6116 30.7233 56.9116 30.59C57.2116 30.45 57.5449 30.38 57.9116 30.38ZM63.8629 36.09C63.3296 36.09 62.8496 35.9733 62.4229 35.74C61.9962 35.5 61.6596 35.1633 61.4129 34.73C61.1729 34.2967 61.0529 33.7967 61.0529 33.23C61.0529 32.6633 61.1762 32.1633 61.4229 31.73C61.6762 31.2967 62.0196 30.9633 62.4529 30.73C62.8862 30.49 63.3696 30.37 63.9029 30.37C64.4362 30.37 64.9196 30.49 65.3529 30.73C65.7862 30.9633 66.1262 31.2967 66.3729 31.73C66.6262 32.1633 66.7529 32.6633 66.7529 33.23C66.7529 33.7967 66.6229 34.2967 66.3629 34.73C66.1096 35.1633 65.7629 35.5 65.3229 35.74C64.8896 35.9733 64.4029 36.09 63.8629 36.09ZM63.8629 34.89C64.1162 34.89 64.3529 34.8267 64.5729 34.7C64.7996 34.5733 64.9796 34.3867 65.1129 34.14C65.2462 33.8867 65.3129 33.5833 65.3129 33.23C65.3129 32.8767 65.2462 32.5767 65.1129 32.33C64.9796 32.0767 64.8029 31.8867 64.5829 31.76C64.3696 31.6333 64.1362 31.57 63.8829 31.57C63.4896 31.57 63.1562 31.7167 62.8829 32.01C62.6096 32.2967 62.4729 32.7033 62.4729 33.23C62.4729 33.7567 62.6062 34.1667 62.8729 34.46C63.1396 34.7467 63.4696 34.89 63.8629 34.89ZM69.1798 31.26C69.3598 31.0067 69.6065 30.7967 69.9198 30.63C70.2398 30.4567 70.6032 30.37 71.0098 30.37C71.4832 30.37 71.9098 30.4867 72.2898 30.72C72.6765 30.9533 72.9798 31.2867 73.1998 31.72C73.4265 32.1467 73.5398 32.6433 73.5398 33.21C73.5398 33.7767 73.4265 34.28 73.1998 34.72C72.9798 35.1533 72.6765 35.49 72.2898 35.73C71.9098 35.97 71.4832 36.09 71.0098 36.09C70.6032 36.09 70.2432 36.0067 69.9298 35.84C69.6232 35.6733 69.3732 35.4633 69.1798 35.21V38.64H67.7798V30.46H69.1798V31.26ZM72.1098 33.21C72.1098 32.8767 72.0398 32.59 71.8998 32.35C71.7665 32.1033 71.5865 31.9167 71.3598 31.79C71.1398 31.6633 70.8998 31.6 70.6398 31.6C70.3865 31.6 70.1465 31.6667 69.9198 31.8C69.6998 31.9267 69.5198 32.1133 69.3798 32.36C69.2465 32.6067 69.1798 32.8967 69.1798 33.23C69.1798 33.5633 69.2465 33.8533 69.3798 34.1C69.5198 34.3467 69.6998 34.5367 69.9198 34.67C70.1465 34.7967 70.3865 34.86 70.6398 34.86C70.8998 34.86 71.1398 34.7933 71.3598 34.66C71.5865 34.5267 71.7665 34.3367 71.8998 34.09C72.0398 33.8433 72.1098 33.55 72.1098 33.21Z" fill="#2586FD"/>
<g clip-path="url(#clip0)">
<g opacity="0.4">
<path opacity="0.4" d="M122.87 35.9999C123.313 35.8457 123.783 35.79 124.25 35.8366C124.716 35.8832 125.167 36.0311 125.57 36.2699C127.11 37.1599 126.47 38.1399 125.3 38.7599L123.23 39.9199C122.996 40.0109 122.745 40.05 122.495 40.0345C122.245 40.0189 122.001 39.9491 121.78 39.8299L116.37 36.7099C115.92 36.4499 115.92 36.0899 116.28 35.9099L118.08 34.8399C119.08 34.3099 120.7 33.5999 122.23 34.5799C123.05 35.0699 123.23 35.5199 122.87 35.9999ZM119.35 36.2699L120.25 36.7099L120.79 36.3599C121.06 36.1799 121.15 35.9999 120.79 35.8199C120.647 35.7463 120.486 35.7156 120.327 35.7315C120.167 35.7475 120.015 35.8095 119.89 35.9099L119.35 36.2699ZM121.69 37.6899L122.69 38.2299L123.33 37.8699C123.69 37.6899 123.69 37.5099 123.42 37.3399C123.245 37.2644 123.055 37.2322 122.865 37.2461C122.675 37.26 122.492 37.3197 122.33 37.4199L121.69 37.6899Z" fill="#2586FD"/>
<path opacity="0.4" d="M130.17 33.65L127.56 35.16C128.004 35.3099 128.49 35.2775 128.91 35.07C129.18 34.89 129.27 34.8 129.27 34.63C129.296 34.554 129.344 34.4877 129.408 34.4395C129.473 34.3914 129.55 34.3637 129.63 34.36L130.71 34.18C131.17 34.09 131.62 34.36 131.62 34.63C131.62 35.07 131.26 35.63 130.53 36.05C129.696 36.4585 128.775 36.6558 127.848 36.6244C126.92 36.593 126.014 36.3339 125.21 35.87C123.5 34.87 123.59 33.65 124.94 32.87C125.765 32.4752 126.675 32.2922 127.588 32.3376C128.501 32.383 129.389 32.6553 130.17 33.13C130.208 33.1619 130.238 33.2017 130.259 33.2466C130.28 33.2915 130.291 33.3404 130.291 33.39C130.291 33.4395 130.28 33.4884 130.259 33.5333C130.238 33.5782 130.208 33.618 130.17 33.65V33.65ZM127.65 33.65C127.45 33.5609 127.234 33.5149 127.015 33.5149C126.796 33.5149 126.58 33.5609 126.38 33.65C125.93 33.91 126.02 34.18 126.29 34.45L127.65 33.65Z" fill="#2586FD"/>
<path opacity="0.4" d="M135.41 33.2C134.579 33.6271 133.652 33.8331 132.719 33.7981C131.785 33.7631 130.876 33.4882 130.08 33C128.28 32 128.55 30.69 129.9 30C130.727 29.5761 131.646 29.3626 132.576 29.3782C133.506 29.3939 134.417 29.6384 135.23 30.09C136.94 31.16 136.76 32.4 135.41 33.2ZM131.89 32C132.134 32.1416 132.408 32.2235 132.689 32.2391C132.971 32.2548 133.252 32.2037 133.51 32.09C133.96 31.82 133.87 31.46 133.33 31.2C133.081 31.0727 132.808 30.9989 132.529 30.9834C132.25 30.9679 131.971 31.011 131.71 31.11C131.35 31.33 131.44 31.69 131.89 32Z" fill="#2586FD"/>
<path opacity="0.4" d="M133.42 28.1299L134.32 27.5999C134.49 27.506 134.683 27.4636 134.877 27.4778C135.07 27.492 135.256 27.5623 135.41 27.6799C135.23 27.3299 135.41 26.8799 135.95 26.5299C136.558 26.2548 137.227 26.1425 137.891 26.2038C138.556 26.2652 139.193 26.4982 139.74 26.8799L142.26 28.3999C142.62 28.5699 142.62 28.8399 142.35 29.0199L141.35 29.5499C141.18 29.6403 140.988 29.6799 140.797 29.6639C140.605 29.6479 140.422 29.5771 140.27 29.4599L138.1 28.2199C137.56 27.9499 137.2 27.8599 136.93 28.0399C136.66 28.2199 136.75 28.3999 137.2 28.7499L139.38 29.9999C139.74 30.1799 139.74 30.4399 139.47 30.6199L138.56 31.1599C138.39 31.2503 138.198 31.2899 138.007 31.2739C137.815 31.2579 137.632 31.1871 137.48 31.0699L133.42 28.7499C133.36 28.723 133.309 28.6795 133.274 28.6245C133.238 28.5695 133.219 28.5054 133.219 28.4399C133.219 28.3744 133.238 28.3104 133.274 28.2554C133.309 28.2004 133.36 28.1568 133.42 28.1299Z" fill="#2586FD"/>
<path opacity="0.4" d="M136.94 23.5899C137.282 23.43 137.658 23.3548 138.036 23.3704C138.413 23.3861 138.782 23.4922 139.11 23.6799L144.11 26.6199C144.74 26.9699 144.83 27.5099 144.29 27.8599C143.948 28.0222 143.572 28.0989 143.194 28.0832C142.816 28.0675 142.447 27.96 142.12 27.7699L137.07 24.8399C136.4 24.4799 136.31 23.8599 136.94 23.5899Z" fill="#2586FD"/>
<path opacity="0.4" d="M139.38 22.17C139.704 22.0076 140.064 21.9306 140.427 21.9463C140.789 21.9621 141.141 22.0701 141.45 22.26L144.34 24C144.97 24.35 145.06 24.89 144.52 25.24C144.194 25.4024 143.832 25.4793 143.468 25.4636C143.105 25.4478 142.751 25.3399 142.44 25.15L139.56 23.46C138.92 23 138.83 22.52 139.38 22.17Z" fill="#2586FD"/>
<path opacity="0.4" d="M143.53 22.3499L144.43 21.8099C144.6 21.7195 144.792 21.6799 144.983 21.6959C145.175 21.7118 145.358 21.7827 145.51 21.8999C145.33 21.5499 145.51 21.0999 146.05 20.7399C146.659 20.4662 147.328 20.3555 147.992 20.4186C148.657 20.4817 149.294 20.7165 149.84 21.0999L152.37 22.6099C152.73 22.7899 152.73 23.0599 152.46 23.2399L151.46 23.7699C151.289 23.8623 151.095 23.9031 150.901 23.8871C150.708 23.8711 150.523 23.7991 150.37 23.6799L148.3 22.3499C147.76 22.0799 147.4 21.9899 147.13 22.1699C146.86 22.3499 146.95 22.5199 147.4 22.8799L149.56 24.1299C149.92 24.2999 149.92 24.5699 149.65 24.7499L148.65 25.2799C148.48 25.3702 148.288 25.4098 148.097 25.3938C147.905 25.3779 147.722 25.3071 147.57 25.1899L143.51 22.8799C143.459 22.8552 143.417 22.8164 143.388 22.7682C143.359 22.72 143.345 22.6645 143.347 22.6084C143.349 22.5522 143.368 22.4979 143.4 22.452C143.433 22.4061 143.478 22.3706 143.53 22.3499V22.3499Z" fill="#2586FD"/>
<path opacity="0.4" d="M155.62 19L153 20.48C153.444 20.6299 153.93 20.5976 154.35 20.39C154.62 20.21 154.71 20.12 154.71 19.94C154.71 19.76 154.9 19.68 155.08 19.68L156.16 19.5C156.61 19.41 157.06 19.68 157.06 19.94C157.012 20.2462 156.89 20.5362 156.706 20.7852C156.521 21.0343 156.279 21.2349 156 21.37C155.165 21.7786 154.242 21.9758 153.313 21.9444C152.383 21.913 151.476 21.654 150.67 21.19C148.96 20.19 149.05 18.96 150.4 18.19C151.227 17.7967 152.139 17.6155 153.054 17.6626C153.969 17.7097 154.858 17.9838 155.64 18.46C155.89 18.61 155.89 18.79 155.62 19ZM153.18 19C152.981 18.9158 152.766 18.8725 152.55 18.8725C152.334 18.8725 152.119 18.9158 151.92 19C151.47 19.27 151.56 19.54 151.83 19.81L153.18 19Z" fill="#2586FD"/>
</g>
<path d="M131.17 8.38007C131.032 8.44371 130.907 8.5318 130.8 8.64007L130.53 8.91007L129.9 9.62007C129.559 9.85157 129.164 9.98999 128.754 10.0216C128.343 10.0531 127.932 9.97678 127.56 9.80007L125.12 8.55007C125.03 8.55007 125.03 8.46007 124.94 8.46007C124.85 8.46007 124.76 8.38007 124.67 8.29007C121.511 6.24844 117.73 5.39441 114 5.88007C113.64 5.88007 114 3.75007 110.21 1.52007C108.514 0.526921 106.585 0.00341797 104.62 0.00341797C102.655 0.00341797 100.725 0.526921 99.0299 1.52007L87.5899 8.00007C87.4099 8.18007 87.2299 8.27007 87.0499 8.44007C85.5099 9.25007 85.6899 10.7601 87.4099 11.6501L108.41 23.6501C109.25 24.1407 110.193 24.4279 111.163 24.4887C112.134 24.5495 113.105 24.3821 114 24.0001L125.73 17.2301C127.81 16.0801 128.73 14.3901 128.44 12.7001L128.71 11.8101C128.98 11.1801 130.24 10.9201 131.24 11.2701L132.24 11.6301C133.699 12.1795 135.314 12.1473 136.75 11.5401C138.1 10.7401 137.92 9.40007 136.39 8.54007C135.588 8.12173 134.702 7.89005 133.798 7.86234C132.894 7.83463 131.996 8.01162 131.17 8.38007V8.38007Z" fill="#2586FD"/>
<path opacity="0.4" d="M115.48 29.6999L115 29.4099L113.42 30.2099L113.96 30.5099C114.174 30.5916 114.404 30.6242 114.632 30.6052C114.861 30.5861 115.082 30.516 115.28 30.3999C115.68 30.1699 115.81 29.8799 115.48 29.6999Z" fill="#2586FD"/>
<path opacity="0.4" d="M112.11 27.8C111.654 27.6573 111.174 27.6103 110.699 27.6619C110.224 27.7135 109.765 27.8627 109.35 28.1C108.35 28.54 107.88 29.1 108.56 29.49C109.017 29.6378 109.5 29.6875 109.977 29.6358C110.454 29.5841 110.916 29.4322 111.33 29.19C112.25 28.74 112.76 28.15 112.11 27.8Z" fill="#2586FD"/>
<path opacity="0.4" d="M138.29 17.9C137.495 17.4569 136.606 17.2094 135.697 17.1781C134.787 17.1468 133.883 17.3326 133.06 17.72C132.925 17.7873 132.803 17.8788 132.7 17.99L132.43 18.25L131.8 19C131.458 19.2333 131.062 19.3728 130.649 19.4044C130.237 19.436 129.823 19.3586 129.45 19.18L127 17.81C126.91 17.81 126.91 17.72 126.81 17.72C126.71 17.72 126.63 17.63 126.54 17.54C123.405 15.5618 119.675 14.7445 116 15.23C115.64 15.23 116 13.09 112.21 10.87C110.484 9.91395 108.543 9.41235 106.57 9.41235C104.597 9.41235 102.656 9.91395 100.93 10.87L89.57 17.36C89.3688 17.4826 89.1868 17.6342 89.03 17.81C87.5 18.61 87.68 20.12 89.39 21.01L110.39 33.11C111.238 33.588 112.186 33.8613 113.158 33.9082C114.13 33.955 115.1 33.7742 115.99 33.38L127.72 26.62C129.79 25.46 130.72 23.77 130.42 22.08L130.69 21.19C130.97 20.57 132.23 20.3 133.31 20.66L134.31 21.01C135.768 21.5678 137.386 21.5355 138.82 20.92C140 20.12 139.83 18.79 138.29 17.9ZM100.22 26C99.81 25.77 99.06 25.22 99.85 24.91C100.008 24.8418 100.178 24.8066 100.35 24.8066C100.522 24.8066 100.692 24.8418 100.85 24.91C101.1 25.04 101.08 25.34 101.42 25.53C101.617 25.6214 101.832 25.6687 102.05 25.6687C102.268 25.6687 102.483 25.6214 102.68 25.53C103.68 25.13 101.29 24.4 103.21 23.62C103.702 23.3971 104.233 23.276 104.773 23.2639C105.312 23.2519 105.849 23.3492 106.35 23.55C106.64 23.71 107.19 24.18 106.56 24.45C106.406 24.5278 106.239 24.5741 106.067 24.5861C105.895 24.5981 105.723 24.5757 105.56 24.52C105.35 24.4 105.42 24.2 105.11 24.03C104.953 23.9587 104.782 23.9219 104.61 23.9219C104.438 23.9219 104.267 23.9587 104.11 24.03C103.27 24.38 105.56 25.12 103.47 26.03C102.954 26.2434 102.4 26.3507 101.842 26.3455C101.284 26.3404 100.732 26.2229 100.22 26V26ZM104.93 28.53C104.69 28.4 104.74 28.21 105.14 28.04L106.88 27.27L105.21 26.35L103.45 27.11C103.292 27.1777 103.122 27.2126 102.95 27.2126C102.778 27.2126 102.608 27.1777 102.45 27.11C102.22 26.99 102.28 26.79 102.69 26.62L107.28 24.62C107.432 24.5382 107.6 24.4896 107.772 24.4776C107.945 24.4655 108.118 24.4902 108.28 24.55C108.5 24.68 108.44 24.87 108.04 25.04L106.35 25.79L108 26.7L109.64 26C109.79 25.9129 109.959 25.8613 110.132 25.8492C110.305 25.8371 110.479 25.8647 110.64 25.93C110.87 26.05 110.81 26.24 110.42 26.42L105.96 28.42C105.808 28.5148 105.636 28.5739 105.458 28.593C105.279 28.612 105.099 28.5905 104.93 28.53ZM107.48 30C106.39 29.39 106.9 28.4 108.48 27.66C110.06 26.92 112.07 26.72 113.12 27.3C114.17 27.88 113.65 28.89 112.12 29.65C110.59 30.41 108.59 30.6 107.48 30ZM116.04 30.86C115.577 31.1121 115.063 31.2557 114.536 31.2799C114.009 31.3042 113.484 31.2085 113 31L112.4 30.67L111.16 31.29C111.009 31.375 110.841 31.4254 110.668 31.4375C110.495 31.4496 110.321 31.4232 110.16 31.36C109.92 31.23 109.97 31.03 110.35 30.84L114.6 28.74C114.748 28.6476 114.916 28.5921 115.09 28.5781C115.264 28.5642 115.439 28.5923 115.6 28.66L116.51 29.16C117.23 29.62 117.09 30.3 116 30.85L116.04 30.86Z" fill="#2586FD"/>
</g>
<defs>
<clipPath id="clip0">
<rect x="86" width="71.06" height="40" fill="white"/>
</clipPath>
</defs>
</svg>
