<svg width="20" height="20" viewBox="0 0 20 20" fill="none" xmlns="http://www.w3.org/2000/svg">
<g id="place_24px">
<path id="icon/maps/place_24px" fill-rule="evenodd" clip-rule="evenodd" d="M9.99996 1.66675C6.77496 1.66675 4.16663 4.27508 4.16663 7.50008C4.16663 11.8751 9.99996 18.3334 9.99996 18.3334C9.99996 18.3334 15.8333 11.8751 15.8333 7.50008C15.8333 4.27508 13.225 1.66675 9.99996 1.66675ZM5.83329 7.50008C5.83329 5.20008 7.69996 3.33341 9.99996 3.33341C12.3 3.33341 14.1666 5.20008 14.1666 7.50008C14.1666 9.90008 11.7666 13.4917 9.99996 15.7334C8.26663 13.5084 5.83329 9.87508 5.83329 7.50008ZM7.91663 7.50008C7.91663 6.34949 8.84937 5.41675 9.99996 5.41675C10.7443 5.41675 11.432 5.81383 11.8042 6.45841C12.1763 7.103 12.1763 7.89716 11.8042 8.54175C11.432 9.18633 10.7443 9.58341 9.99996 9.58341C8.84937 9.58341 7.91663 8.65067 7.91663 7.50008Z" fill="#333333"/>
</g>
</svg>
