<svg width="26" height="26" viewBox="0 0 26 26" fill="none" xmlns="http://www.w3.org/2000/svg">
<path fill-rule="evenodd" clip-rule="evenodd" d="M13 4.3335C10.6059 4.3335 8.66671 6.27266 8.66671 8.66683C8.66671 11.061 10.6059 13.0002 13 13.0002C15.3942 13.0002 17.3334 11.061 17.3334 8.66683C17.3334 6.27266 15.3942 4.3335 13 4.3335ZM15.1667 8.66683C15.1667 7.47516 14.1917 6.50016 13 6.50016C11.8084 6.50016 10.8334 7.47516 10.8334 8.66683C10.8334 9.8585 11.8084 10.8335 13 10.8335C14.1917 10.8335 15.1667 9.8585 15.1667 8.66683ZM19.5 19.5002C19.2834 18.731 15.925 17.3335 13 17.3335C10.0859 17.3335 6.74921 18.7202 6.50004 19.5002H19.5ZM4.33337 19.5002C4.33337 16.6185 10.1075 15.1668 13 15.1668C15.8925 15.1668 21.6667 16.6185 21.6667 19.5002V21.6668H4.33337V19.5002Z" fill="black" fill-opacity="0.54"/>
</svg>
