<svg width="158" height="40" viewBox="0 0 158 40" fill="none" xmlns="http://www.w3.org/2000/svg">
<path d="M5.54199 6.96094C5.54199 7.6901 5.29297 8.25 4.79492 8.64062C4.29688 9.02799 3.59538 9.22168 2.69043 9.22168H1.87012V12H0.97168V4.86133H2.86133C4.64844 4.86133 5.54199 5.5612 5.54199 6.96094ZM1.87012 8.4502H2.58789C3.29753 8.4502 3.81185 8.33626 4.13086 8.1084C4.44987 7.87728 4.60938 7.50781 4.60938 7C4.60938 6.54102 4.46126 6.19759 4.16504 5.96973C3.86882 5.74186 3.40658 5.62793 2.77832 5.62793H1.87012V8.4502ZM10.2148 12L10.0439 11.2383H10.0049C9.73796 11.5736 9.47103 11.8014 9.2041 11.9219C8.94043 12.0391 8.60677 12.0977 8.20312 12.0977C7.67578 12.0977 7.26237 11.9593 6.96289 11.6826C6.66341 11.4059 6.51367 11.0153 6.51367 10.5107C6.51367 9.4235 7.37142 8.85384 9.08691 8.80176L9.99512 8.76758V8.4502C9.99512 8.04329 9.90723 7.74382 9.73145 7.55176C9.55566 7.35645 9.27409 7.25879 8.88672 7.25879C8.60352 7.25879 8.33496 7.30111 8.08105 7.38574C7.8304 7.47038 7.5944 7.56478 7.37305 7.66895L7.10449 7.00977C7.37467 6.86654 7.66927 6.75423 7.98828 6.67285C8.30729 6.59147 8.62305 6.55078 8.93555 6.55078C9.58333 6.55078 10.0651 6.69401 10.3809 6.98047C10.6966 7.26693 10.8545 7.72266 10.8545 8.34766V12H10.2148ZM8.40332 11.3896C8.89486 11.3896 9.2806 11.2578 9.56055 10.9941C9.84375 10.7272 9.98535 10.3496 9.98535 9.86133V9.37793L9.19434 9.41211C8.5791 9.4349 8.12988 9.53255 7.84668 9.70508C7.56673 9.8776 7.42676 10.1494 7.42676 10.5205C7.42676 10.8005 7.51139 11.0153 7.68066 11.165C7.85319 11.3148 8.09408 11.3896 8.40332 11.3896ZM12.2412 8.78223C12.2412 7.58757 12.4202 6.66797 12.7783 6.02344C13.1396 5.37565 13.7061 4.96712 14.4775 4.79785C15.2035 4.65137 16.014 4.50163 16.9092 4.34863L17.0605 5.12012L16.4795 5.21289C15.7243 5.33659 15.1172 5.44564 14.6582 5.54004C14.1895 5.64421 13.8363 5.88346 13.5986 6.25781C13.3643 6.62891 13.2308 7.16927 13.1982 7.87891H13.2617C13.4505 7.61523 13.7012 7.40527 14.0137 7.24902C14.3294 7.08952 14.6647 7.00977 15.0195 7.00977C15.6771 7.00977 16.1914 7.22135 16.5625 7.64453C16.9336 8.06771 17.1191 8.66016 17.1191 9.42188C17.1191 10.2715 16.9027 10.9307 16.4697 11.3994C16.0368 11.8649 15.4362 12.0977 14.668 12.0977C13.9062 12.0977 13.3105 11.8063 12.8809 11.2236C12.4544 10.641 12.2412 9.82715 12.2412 8.78223ZM14.7412 11.3701C15.708 11.3701 16.1914 10.75 16.1914 9.50977C16.1914 8.33138 15.7536 7.74219 14.8779 7.74219C14.6403 7.74219 14.4092 7.79102 14.1846 7.88867C13.9632 7.98633 13.7614 8.11491 13.5791 8.27441C13.4001 8.43392 13.2536 8.6097 13.1396 8.80176C13.1396 10.514 13.6735 11.3701 14.7412 11.3701ZM23.1738 9.30957C23.1738 10.1852 22.9525 10.8688 22.5098 11.3604C22.0671 11.8519 21.4551 12.0977 20.6738 12.0977C20.1888 12.0977 19.7591 11.9854 19.3848 11.7607C19.0104 11.5329 18.7223 11.2074 18.5205 10.7842C18.3187 10.361 18.2178 9.86947 18.2178 9.30957C18.2178 8.43717 18.4359 7.75846 18.8721 7.27344C19.3083 6.78516 19.9202 6.54102 20.708 6.54102C21.4632 6.54102 22.0622 6.79004 22.5049 7.28809C22.9508 7.78288 23.1738 8.45671 23.1738 9.30957ZM19.126 9.30957C19.126 9.9834 19.2578 10.4961 19.5215 10.8477C19.7884 11.196 20.1807 11.3701 20.6982 11.3701C21.2093 11.3701 21.5983 11.196 21.8652 10.8477C22.1322 10.4961 22.2656 9.9834 22.2656 9.30957C22.2656 8.63574 22.1305 8.12956 21.8604 7.79102C21.5934 7.44922 21.2012 7.27832 20.6836 7.27832C19.6452 7.27832 19.126 7.9554 19.126 9.30957ZM28.2227 7.38086H26.4697V12H25.6006V7.38086H23.8721V6.63867H28.2227V7.38086ZM32.5977 12L32.4268 11.2383H32.3877C32.1208 11.5736 31.8538 11.8014 31.5869 11.9219C31.3232 12.0391 30.9896 12.0977 30.5859 12.0977C30.0586 12.0977 29.6452 11.9593 29.3457 11.6826C29.0462 11.4059 28.8965 11.0153 28.8965 10.5107C28.8965 9.4235 29.7542 8.85384 31.4697 8.80176L32.3779 8.76758V8.4502C32.3779 8.04329 32.29 7.74382 32.1143 7.55176C31.9385 7.35645 31.6569 7.25879 31.2695 7.25879C30.9863 7.25879 30.7178 7.30111 30.4639 7.38574C30.2132 7.47038 29.9772 7.56478 29.7559 7.66895L29.4873 7.00977C29.7575 6.86654 30.0521 6.75423 30.3711 6.67285C30.6901 6.59147 31.0059 6.55078 31.3184 6.55078C31.9661 6.55078 32.4479 6.69401 32.7637 6.98047C33.0794 7.26693 33.2373 7.72266 33.2373 8.34766V12H32.5977ZM30.7861 11.3896C31.2777 11.3896 31.6634 11.2578 31.9434 10.9941C32.2266 10.7272 32.3682 10.3496 32.3682 9.86133V9.37793L31.5771 9.41211C30.9619 9.4349 30.5127 9.53255 30.2295 9.70508C29.9495 9.8776 29.8096 10.1494 29.8096 10.5205C29.8096 10.8005 29.8942 11.0153 30.0635 11.165C30.236 11.3148 30.4769 11.3896 30.7861 11.3896ZM37.1826 12.0977C36.3786 12.0977 35.7471 11.8551 35.2881 11.3701C34.8324 10.8818 34.6045 10.2113 34.6045 9.3584C34.6045 8.49902 34.8177 7.81543 35.2441 7.30762C35.6706 6.79655 36.2467 6.54102 36.9727 6.54102C37.6465 6.54102 38.1836 6.75911 38.584 7.19531C38.9844 7.62826 39.1846 8.21582 39.1846 8.95801V9.49023H35.5127C35.529 10.099 35.6836 10.5612 35.9766 10.877C36.2695 11.1927 36.6846 11.3506 37.2217 11.3506C37.5081 11.3506 37.7799 11.3262 38.0371 11.2773C38.2943 11.2253 38.5954 11.126 38.9404 10.9795V11.751C38.6442 11.8779 38.3659 11.9674 38.1055 12.0195C37.8451 12.0716 37.5374 12.0977 37.1826 12.0977ZM36.9629 7.25879C36.543 7.25879 36.2109 7.39388 35.9668 7.66406C35.7227 7.93424 35.5778 8.31022 35.5322 8.79199H38.2617C38.2552 8.29069 38.1396 7.90983 37.915 7.64941C37.6904 7.389 37.373 7.25879 36.9629 7.25879ZM44.248 7.38086H42.4951V12H41.626V7.38086H39.8975V6.63867H44.248V7.38086ZM49.1699 6.63867V8.87012H52.0801V6.63867H52.959V12H52.0801V9.6123H49.1699V12H48.291V6.63867H49.1699ZM57.9785 12L57.8076 11.2383H57.7686C57.5016 11.5736 57.2347 11.8014 56.9678 11.9219C56.7041 12.0391 56.3704 12.0977 55.9668 12.0977C55.4395 12.0977 55.026 11.9593 54.7266 11.6826C54.4271 11.4059 54.2773 11.0153 54.2773 10.5107C54.2773 9.4235 55.1351 8.85384 56.8506 8.80176L57.7588 8.76758V8.4502C57.7588 8.04329 57.6709 7.74382 57.4951 7.55176C57.3193 7.35645 57.0378 7.25879 56.6504 7.25879C56.3672 7.25879 56.0986 7.30111 55.8447 7.38574C55.5941 7.47038 55.3581 7.56478 55.1367 7.66895L54.8682 7.00977C55.1383 6.86654 55.4329 6.75423 55.752 6.67285C56.071 6.59147 56.3867 6.55078 56.6992 6.55078C57.347 6.55078 57.8288 6.69401 58.1445 6.98047C58.4603 7.26693 58.6182 7.72266 58.6182 8.34766V12H57.9785ZM56.167 11.3896C56.6585 11.3896 57.0443 11.2578 57.3242 10.9941C57.6074 10.7272 57.749 10.3496 57.749 9.86133V9.37793L56.958 9.41211C56.3428 9.4349 55.8936 9.53255 55.6104 9.70508C55.3304 9.8776 55.1904 10.1494 55.1904 10.5205C55.1904 10.8005 55.2751 11.0153 55.4443 11.165C55.6169 11.3148 55.8577 11.3896 56.167 11.3896ZM4.55078 19.3809H2.79785V24H1.92871V19.3809H0.200195V18.6387H4.55078V19.3809ZM7.84668 24.0977C7.04264 24.0977 6.41113 23.8551 5.95215 23.3701C5.49642 22.8818 5.26855 22.2113 5.26855 21.3584C5.26855 20.499 5.48177 19.8154 5.9082 19.3076C6.33464 18.7965 6.91081 18.541 7.63672 18.541C8.31055 18.541 8.84766 18.7591 9.24805 19.1953C9.64844 19.6283 9.84863 20.2158 9.84863 20.958V21.4902H6.17676C6.19303 22.099 6.34766 22.5612 6.64062 22.877C6.93359 23.1927 7.34863 23.3506 7.88574 23.3506C8.1722 23.3506 8.44401 23.3262 8.70117 23.2773C8.95833 23.2253 9.25944 23.126 9.60449 22.9795V23.751C9.30827 23.8779 9.02995 23.9674 8.76953 24.0195C8.50911 24.0716 8.2015 24.0977 7.84668 24.0977ZM7.62695 19.2588C7.20703 19.2588 6.875 19.3939 6.63086 19.6641C6.38672 19.9342 6.24186 20.3102 6.19629 20.792H8.92578C8.91927 20.2907 8.80371 19.9098 8.5791 19.6494C8.35449 19.389 8.03711 19.2588 7.62695 19.2588ZM12.4805 21.2607L10.6299 18.6387H11.6309L13.0127 20.6602L14.3799 18.6387H15.3711L13.5205 21.2607L15.4736 24H14.4727L13.0127 21.8613L11.5332 24H10.542L12.4805 21.2607ZM17.3828 18.6387V20.8701H20.293V18.6387H21.1719V24H20.293V21.6123H17.3828V24H16.5039V18.6387H17.3828ZM27.5391 21.3096C27.5391 22.1852 27.3177 22.8688 26.875 23.3604C26.4323 23.8519 25.8203 24.0977 25.0391 24.0977C24.554 24.0977 24.1243 23.9854 23.75 23.7607C23.3757 23.5329 23.0876 23.2074 22.8857 22.7842C22.6839 22.361 22.583 21.8695 22.583 21.3096C22.583 20.4372 22.8011 19.7585 23.2373 19.2734C23.6735 18.7852 24.2855 18.541 25.0732 18.541C25.8285 18.541 26.4274 18.79 26.8701 19.2881C27.3161 19.7829 27.5391 20.4567 27.5391 21.3096ZM23.4912 21.3096C23.4912 21.9834 23.623 22.4961 23.8867 22.8477C24.1536 23.196 24.5459 23.3701 25.0635 23.3701C25.5745 23.3701 25.9635 23.196 26.2305 22.8477C26.4974 22.4961 26.6309 21.9834 26.6309 21.3096C26.6309 20.6357 26.4958 20.1296 26.2256 19.791C25.9587 19.4492 25.5664 19.2783 25.0488 19.2783C24.0104 19.2783 23.4912 19.9554 23.4912 21.3096ZM33.0176 24H32.124V19.3711H30.5469C30.4557 20.543 30.332 21.4642 30.1758 22.1348C30.0228 22.8021 29.821 23.292 29.5703 23.6045C29.3229 23.9137 29.0055 24.0684 28.6182 24.0684C28.4066 24.0684 28.252 24.0456 28.1543 24V23.3408C28.2227 23.3669 28.3138 23.3799 28.4277 23.3799C28.7858 23.3799 29.0706 23.0023 29.2822 22.2471C29.4971 21.4919 29.6647 20.2891 29.7852 18.6387H33.0176V24ZM39.375 21.3096C39.375 22.1852 39.1536 22.8688 38.7109 23.3604C38.2682 23.8519 37.6562 24.0977 36.875 24.0977C36.39 24.0977 35.9603 23.9854 35.5859 23.7607C35.2116 23.5329 34.9235 23.2074 34.7217 22.7842C34.5199 22.361 34.4189 21.8695 34.4189 21.3096C34.4189 20.4372 34.637 19.7585 35.0732 19.2734C35.5094 18.7852 36.1214 18.541 36.9092 18.541C37.6644 18.541 38.2633 18.79 38.7061 19.2881C39.152 19.7829 39.375 20.4567 39.375 21.3096ZM35.3271 21.3096C35.3271 21.9834 35.459 22.4961 35.7227 22.8477C35.9896 23.196 36.3818 23.3701 36.8994 23.3701C37.4105 23.3701 37.7995 23.196 38.0664 22.8477C38.3333 22.4961 38.4668 21.9834 38.4668 21.3096C38.4668 20.6357 38.3317 20.1296 38.0615 19.791C37.7946 19.4492 37.4023 19.2783 36.8848 19.2783C35.8464 19.2783 35.3271 19.9554 35.3271 21.3096ZM44.043 19.3809H41.6504V24H40.7715V18.6387H44.043V19.3809ZM45.9375 18.6387V21.9102L45.8984 22.8574L45.8789 23.1309L48.75 18.6387H49.8291V24H49.0088V20.8408L49.0234 20.1621L49.0479 19.5176L46.1963 24H45.1074V18.6387H45.9375ZM52.373 18.6387V21.9102L52.334 22.8574L52.3145 23.1309L55.1855 18.6387H56.2646V24H55.4443V20.8408L55.459 20.1621L55.4834 19.5176L52.6318 24H51.543V18.6387H52.373ZM4.65 32.42C5.04333 32.4933 5.36667 32.69 5.62 33.01C5.87333 33.33 6 33.6967 6 34.11C6 34.4833 5.90667 34.8133 5.72 35.1C5.54 35.38 5.27667 35.6 4.93 35.76C4.58333 35.92 4.17333 36 3.7 36H0.69V29.02H3.57C4.04333 29.02 4.45 29.0967 4.79 29.25C5.13667 29.4033 5.39667 29.6167 5.57 29.89C5.75 30.1633 5.84 30.4733 5.84 30.82C5.84 31.2267 5.73 31.5667 5.51 31.84C5.29667 32.1133 5.01 32.3067 4.65 32.42ZM2.09 31.92H3.37C3.70333 31.92 3.96 31.8433 4.14 31.69C4.32 31.5367 4.41 31.3167 4.41 31.03C4.41 30.7433 4.31667 30.52 4.13 30.36C3.95 30.2 3.69667 30.12 3.37 30.12H2.09V31.92ZM3.5 34.89C3.84 34.89 4.10333 34.81 4.29 34.65C4.48333 34.4833 4.58 34.2467 4.58 33.94C4.58 33.64 4.48 33.4033 4.28 33.23C4.08 33.0567 3.81 32.97 3.47 32.97H2.09V34.89H3.5ZM12.2658 33.1C12.2658 33.2867 12.2524 33.46 12.2258 33.62H8.17578C8.20245 34.0267 8.33911 34.3467 8.58578 34.58C8.83245 34.8133 9.13911 34.93 9.50578 34.93C10.0258 34.93 10.3958 34.7067 10.6158 34.26H12.1258C11.9658 34.7933 11.6591 35.2333 11.2058 35.58C10.7524 35.92 10.1958 36.09 9.53578 36.09C9.00245 36.09 8.52245 35.9733 8.09578 35.74C7.67578 35.5 7.34578 35.1633 7.10578 34.73C6.87245 34.2967 6.75578 33.7967 6.75578 33.23C6.75578 32.6567 6.87245 32.1533 7.10578 31.72C7.33911 31.2867 7.66578 30.9533 8.08578 30.72C8.50578 30.4867 8.98911 30.37 9.53578 30.37C10.0624 30.37 10.5324 30.4833 10.9458 30.71C11.3658 30.9367 11.6891 31.2567 11.9158 31.67C12.1491 32.0833 12.2658 32.56 12.2658 33.1ZM10.8158 32.77C10.8091 32.3833 10.6791 32.08 10.4258 31.86C10.1791 31.6333 9.86911 31.52 9.49578 31.52C9.14245 31.52 8.84578 31.6333 8.60578 31.86C8.36578 32.08 8.22245 32.3833 8.17578 32.77H10.8158ZM16.5277 36.07C15.8743 36.07 15.2743 35.9167 14.7277 35.61C14.181 35.3033 13.7477 34.88 13.4277 34.34C13.1077 33.7933 12.9477 33.1767 12.9477 32.49C12.9477 31.81 13.1077 31.2 13.4277 30.66C13.7477 30.1133 14.181 29.6867 14.7277 29.38C15.2743 29.0733 15.8743 28.92 16.5277 28.92C17.1877 28.92 17.7877 29.0733 18.3277 29.38C18.8743 29.6867 19.3043 30.1133 19.6177 30.66C19.9377 31.2 20.0977 31.81 20.0977 32.49C20.0977 33.1767 19.9377 33.7933 19.6177 34.34C19.3043 34.88 18.8743 35.3033 18.3277 35.61C17.781 35.9167 17.181 36.07 16.5277 36.07ZM16.5277 34.78C16.9477 34.78 17.3177 34.6867 17.6377 34.5C17.9577 34.3067 18.2077 34.04 18.3877 33.7C18.5677 33.3533 18.6577 32.95 18.6577 32.49C18.6577 32.03 18.5677 31.63 18.3877 31.29C18.2077 30.9433 17.9577 30.6767 17.6377 30.49C17.3177 30.3033 16.9477 30.21 16.5277 30.21C16.1077 30.21 15.7343 30.3033 15.4077 30.49C15.0877 30.6767 14.8377 30.9433 14.6577 31.29C14.4777 31.63 14.3877 32.03 14.3877 32.49C14.3877 32.95 14.4777 33.3533 14.6577 33.7C14.8377 34.04 15.0877 34.3067 15.4077 34.5C15.7343 34.6867 16.1077 34.78 16.5277 34.78ZM24.2092 30.38C24.8692 30.38 25.4026 30.59 25.8092 31.01C26.2159 31.4233 26.4192 32.0033 26.4192 32.75V36H25.0192V32.94C25.0192 32.5 24.9092 32.1633 24.6892 31.93C24.4692 31.69 24.1692 31.57 23.7892 31.57C23.4026 31.57 23.0959 31.69 22.8692 31.93C22.6492 32.1633 22.5392 32.5 22.5392 32.94V36H21.1392V30.46H22.5392V31.15C22.7259 30.91 22.9626 30.7233 23.2492 30.59C23.5426 30.45 23.8626 30.38 24.2092 30.38ZM29.1505 28.6V36H27.7505V28.6H29.1505ZM31.2438 29.8C30.9971 29.8 30.7904 29.7233 30.6238 29.57C30.4638 29.41 30.3838 29.2133 30.3838 28.98C30.3838 28.7467 30.4638 28.5533 30.6238 28.4C30.7904 28.24 30.9971 28.16 31.2438 28.16C31.4904 28.16 31.6938 28.24 31.8538 28.4C32.0204 28.5533 32.1038 28.7467 32.1038 28.98C32.1038 29.2133 32.0204 29.41 31.8538 29.57C31.6938 29.7233 31.4904 29.8 31.2438 29.8ZM31.9338 30.46V36H30.5338V30.46H31.9338ZM36.387 30.38C37.047 30.38 37.5803 30.59 37.987 31.01C38.3936 31.4233 38.597 32.0033 38.597 32.75V36H37.197V32.94C37.197 32.5 37.087 32.1633 36.867 31.93C36.647 31.69 36.347 31.57 35.967 31.57C35.5803 31.57 35.2736 31.69 35.047 31.93C34.827 32.1633 34.717 32.5 34.717 32.94V36H33.317V30.46H34.717V31.15C34.9036 30.91 35.1403 30.7233 35.427 30.59C35.7203 30.45 36.0403 30.38 36.387 30.38ZM45.0783 33.1C45.0783 33.2867 45.0649 33.46 45.0383 33.62H40.9883C41.0149 34.0267 41.1516 34.3467 41.3983 34.58C41.6449 34.8133 41.9516 34.93 42.3183 34.93C42.8383 34.93 43.2083 34.7067 43.4283 34.26H44.9383C44.7783 34.7933 44.4716 35.2333 44.0183 35.58C43.5649 35.92 43.0083 36.09 42.3483 36.09C41.8149 36.09 41.3349 35.9733 40.9083 35.74C40.4883 35.5 40.1583 35.1633 39.9183 34.73C39.6849 34.2967 39.5683 33.7967 39.5683 33.23C39.5683 32.6567 39.6849 32.1533 39.9183 31.72C40.1516 31.2867 40.4783 30.9533 40.8983 30.72C41.3183 30.4867 41.8016 30.37 42.3483 30.37C42.8749 30.37 43.3449 30.4833 43.7583 30.71C44.1783 30.9367 44.5016 31.2567 44.7283 31.67C44.9616 32.0833 45.0783 32.56 45.0783 33.1ZM43.6283 32.77C43.6216 32.3833 43.4916 32.08 43.2383 31.86C42.9916 31.6333 42.6816 31.52 42.3083 31.52C41.9549 31.52 41.6583 31.6333 41.4183 31.86C41.1783 32.08 41.0349 32.3833 40.9883 32.77H43.6283ZM46.7202 36.07C46.4668 36.07 46.2568 35.9933 46.0902 35.84C45.9302 35.68 45.8502 35.4833 45.8502 35.25C45.8502 35.0167 45.9302 34.8233 46.0902 34.67C46.2568 34.51 46.4668 34.43 46.7202 34.43C46.9668 34.43 47.1702 34.51 47.3302 34.67C47.4902 34.8233 47.5702 35.0167 47.5702 35.25C47.5702 35.4833 47.4902 35.68 47.3302 35.84C47.1702 35.9933 46.9668 36.07 46.7202 36.07ZM51.1078 36.07C50.6211 36.07 50.1811 35.9867 49.7878 35.82C49.4011 35.6533 49.0945 35.4133 48.8678 35.1C48.6411 34.7867 48.5245 34.4167 48.5178 33.99H50.0178C50.0378 34.2833 50.1378 34.5167 50.3178 34.69C50.5045 34.8633 50.7578 34.95 51.0778 34.95C51.4045 34.95 51.6611 34.87 51.8478 34.71C52.0345 34.55 52.1278 34.3367 52.1278 34.07C52.1278 33.8633 52.0645 33.6933 51.9378 33.56C51.8111 33.4267 51.6511 33.3233 51.4578 33.25C51.2711 33.17 51.0111 33.0833 50.6778 32.99C50.2245 32.8567 49.8545 32.7267 49.5678 32.6C49.2878 32.4667 49.0445 32.27 48.8378 32.01C48.6378 31.7433 48.5378 31.39 48.5378 30.95C48.5378 30.5367 48.6411 30.1767 48.8478 29.87C49.0545 29.5633 49.3445 29.33 49.7178 29.17C50.0911 29.0033 50.5178 28.92 50.9978 28.92C51.7178 28.92 52.3011 29.0967 52.7478 29.45C53.2011 29.7967 53.4511 30.2833 53.4978 30.91H51.9578C51.9445 30.65 51.8411 30.4433 51.6478 30.29C51.4611 30.13 51.2111 30.05 50.8978 30.05C50.6245 30.05 50.4045 30.1233 50.2378 30.27C50.0778 30.41 49.9978 30.62 49.9978 30.9C49.9978 31.0867 50.0578 31.2433 50.1778 31.37C50.3045 31.49 50.4578 31.59 50.6378 31.67C50.8245 31.7433 51.0845 31.83 51.4178 31.93C51.8711 32.0633 52.2411 32.1967 52.5278 32.33C52.8145 32.4633 53.0611 32.6633 53.2678 32.93C53.4745 33.1967 53.5778 33.5467 53.5778 33.98C53.5778 34.3533 53.4811 34.7 53.2878 35.02C53.0945 35.34 52.8111 35.5967 52.4378 35.79C52.0645 35.9767 51.6211 36.07 51.1078 36.07ZM56.4216 31.61V34.29C56.4216 34.4767 56.4649 34.6133 56.5516 34.7C56.6449 34.78 56.7982 34.82 57.0116 34.82H57.6616V36H56.7816C55.6016 36 55.0116 35.4267 55.0116 34.28V31.61H54.3516V30.46H55.0116V29.09H56.4216V30.46H57.6616V31.61H56.4216ZM61.1285 36.09C60.5952 36.09 60.1152 35.9733 59.6885 35.74C59.2618 35.5 58.9252 35.1633 58.6785 34.73C58.4385 34.2967 58.3185 33.7967 58.3185 33.23C58.3185 32.6633 58.4418 32.1633 58.6885 31.73C58.9418 31.2967 59.2852 30.9633 59.7185 30.73C60.1518 30.49 60.6352 30.37 61.1685 30.37C61.7018 30.37 62.1852 30.49 62.6185 30.73C63.0518 30.9633 63.3918 31.2967 63.6385 31.73C63.8918 32.1633 64.0185 32.6633 64.0185 33.23C64.0185 33.7967 63.8885 34.2967 63.6285 34.73C63.3752 35.1633 63.0285 35.5 62.5885 35.74C62.1552 35.9733 61.6685 36.09 61.1285 36.09ZM61.1285 34.89C61.3818 34.89 61.6185 34.8267 61.8385 34.7C62.0652 34.5733 62.2452 34.3867 62.3785 34.14C62.5118 33.8867 62.5785 33.5833 62.5785 33.23C62.5785 32.8767 62.5118 32.5767 62.3785 32.33C62.2452 32.0767 62.0685 31.8867 61.8485 31.76C61.6352 31.6333 61.4018 31.57 61.1485 31.57C60.7552 31.57 60.4218 31.7167 60.1485 32.01C59.8752 32.2967 59.7385 32.7033 59.7385 33.23C59.7385 33.7567 59.8718 34.1667 60.1385 34.46C60.4052 34.7467 60.7352 34.89 61.1285 34.89ZM66.4455 31.44C66.6255 31.1067 66.8588 30.8467 67.1455 30.66C67.4388 30.4733 67.7721 30.38 68.1455 30.38V31.85H67.7755C67.3355 31.85 67.0021 31.9533 66.7755 32.16C66.5555 32.3667 66.4455 32.7267 66.4455 33.24V36H65.0455V30.46H66.4455V31.44ZM74.2384 33.1C74.2384 33.2867 74.2251 33.46 74.1984 33.62H70.1484C70.1751 34.0267 70.3118 34.3467 70.5584 34.58C70.8051 34.8133 71.1118 34.93 71.4784 34.93C71.9984 34.93 72.3684 34.7067 72.5884 34.26H74.0984C73.9384 34.7933 73.6318 35.2333 73.1784 35.58C72.7251 35.92 72.1684 36.09 71.5084 36.09C70.9751 36.09 70.4951 35.9733 70.0684 35.74C69.6484 35.5 69.3184 35.1633 69.0784 34.73C68.8451 34.2967 68.7284 33.7967 68.7284 33.23C68.7284 32.6567 68.8451 32.1533 69.0784 31.72C69.3118 31.2867 69.6384 30.9533 70.0584 30.72C70.4784 30.4867 70.9618 30.37 71.5084 30.37C72.0351 30.37 72.5051 30.4833 72.9184 30.71C73.3384 30.9367 73.6618 31.2567 73.8884 31.67C74.1218 32.0833 74.2384 32.56 74.2384 33.1ZM72.7884 32.77C72.7818 32.3833 72.6518 32.08 72.3984 31.86C72.1518 31.6333 71.8418 31.52 71.4684 31.52C71.1151 31.52 70.8184 31.6333 70.5784 31.86C70.3384 32.08 70.1951 32.3833 70.1484 32.77H72.7884Z" fill="#2586FD"/>
<g opacity="0.4">
<path opacity="0.4" d="M122.865 35.9605C123.587 35.6936 124.76 35.6936 125.572 36.2275C127.106 37.1173 126.474 38.0962 125.301 38.7191L123.226 39.8759C122.865 40.0538 122.234 40.0538 121.783 39.7869L116.369 36.6724C115.918 36.4055 115.918 36.0495 116.279 35.8716L118.084 34.8037C119.076 34.2698 120.7 33.558 122.234 34.5368C123.046 35.0707 123.226 35.5156 122.865 35.9605ZM119.347 36.2275L120.249 36.6724L120.79 36.3165C121.061 36.1385 121.151 35.9605 120.79 35.7826C120.52 35.6046 120.159 35.6936 119.888 35.8716L119.347 36.2275ZM121.692 37.6513L122.685 38.1852L123.317 37.8292C123.677 37.6513 123.677 37.4733 123.407 37.2953C123.046 37.1173 122.595 37.2063 122.324 37.3843L121.692 37.6513Z" fill="#2586FD"/>
<path opacity="0.4" d="M130.173 33.6471L127.557 35.1598C127.918 35.3378 128.549 35.2488 128.91 35.0709C129.181 34.8929 129.271 34.8039 129.271 34.6259C129.271 34.537 129.452 34.359 129.632 34.359L130.715 34.181C131.166 34.092 131.617 34.359 131.617 34.6259C131.617 35.0709 131.256 35.6048 130.534 36.0497C129.271 36.7616 127.016 36.9395 125.211 35.8717C123.497 34.8929 123.587 33.6471 124.94 32.8462C126.384 32.0454 128.459 32.1344 130.173 33.1132C130.354 33.2912 130.354 33.4691 130.173 33.6471ZM127.647 33.6471C127.286 33.4691 126.745 33.4691 126.384 33.6471C125.933 33.9141 126.023 34.181 126.294 34.448L127.647 33.6471Z" fill="#2586FD"/>
<path opacity="0.4" d="M135.407 33.202C134.054 34.0028 131.888 34.0918 130.084 33.024C128.279 32.0452 128.55 30.7104 129.903 29.9985C131.257 29.1977 133.422 29.1087 135.227 30.0875C136.941 31.1553 136.76 32.4011 135.407 33.202ZM131.888 31.9562C132.339 32.2232 133.061 32.3121 133.512 32.0452C133.963 31.7782 133.873 31.4223 133.332 31.1553C132.881 30.8884 132.159 30.8884 131.708 31.0664C131.347 31.3333 131.437 31.6892 131.888 31.9562Z" fill="#2586FD"/>
<path opacity="0.4" d="M133.422 28.1299L134.324 27.596C134.594 27.418 135.046 27.418 135.406 27.685C135.226 27.329 135.406 26.8841 135.948 26.5282C137.211 25.8163 138.655 26.2612 139.737 26.8841L142.264 28.3969C142.624 28.5748 142.624 28.8418 142.354 29.0198L141.361 29.5537C141.091 29.7316 140.639 29.7316 140.279 29.4647L138.113 28.2189C137.572 27.9519 137.211 27.863 136.94 28.0409C136.67 28.2189 136.76 28.3969 137.211 28.7528L139.376 29.9986C139.737 30.1766 139.737 30.4435 139.467 30.6215L138.564 31.1554C138.294 31.3334 137.843 31.3334 137.482 31.0664L133.422 28.7528C133.151 28.5748 133.151 28.3079 133.422 28.1299Z" fill="#2586FD"/>
<path opacity="0.4" d="M136.94 23.5917C137.482 23.2357 138.474 23.3247 139.106 23.6807L144.158 26.6172C144.79 26.9731 144.88 27.507 144.339 27.8629C143.797 28.2189 142.805 28.1299 142.173 27.774L137.121 24.8375C136.399 24.4815 136.309 23.8586 136.94 23.5917Z" fill="#2586FD"/>
<path opacity="0.4" d="M139.376 22.1678C139.917 21.8119 140.82 21.9009 141.451 22.2568L144.338 23.9475C144.97 24.3035 145.06 24.8374 144.519 25.1933C143.978 25.5493 143.075 25.4603 142.444 25.1043L139.557 23.4136C138.925 22.9687 138.835 22.5238 139.376 22.1678Z" fill="#2586FD"/>
<path opacity="0.4" d="M143.527 22.3459L144.429 21.812C144.7 21.634 145.151 21.634 145.512 21.901C145.331 21.545 145.512 21.1001 146.053 20.7442C147.316 20.0323 148.76 20.4772 149.842 21.1001L152.369 22.6128C152.73 22.7908 152.73 23.0578 152.459 23.2357L151.467 23.7696C151.196 23.9476 150.745 23.9476 150.384 23.6807L148.309 22.3459C147.767 22.0789 147.406 21.9899 147.136 22.1679C146.865 22.3459 146.955 22.5239 147.406 22.8798L149.572 24.1256C149.933 24.3035 149.933 24.5705 149.662 24.7485L148.67 25.2824C148.399 25.4604 147.948 25.4604 147.587 25.1934L143.527 22.8798C143.346 22.7908 143.256 22.5239 143.527 22.3459Z" fill="#2586FD"/>
<path opacity="0.4" d="M155.617 18.9645L153.001 20.4772C153.362 20.6552 153.993 20.5662 154.354 20.3882C154.625 20.2103 154.715 20.1213 154.715 19.9433C154.715 19.8543 154.896 19.6764 155.076 19.6764L156.159 19.4984C156.61 19.4094 157.061 19.6764 157.061 19.9433C157.061 20.3882 156.7 20.9222 155.978 21.3671C154.715 22.079 152.459 22.2569 150.655 21.1891C148.941 20.2103 149.031 18.9645 150.384 18.1636C151.828 17.3628 153.903 17.4518 155.617 18.4306C155.888 18.6086 155.888 18.7865 155.617 18.9645ZM153.181 18.9645C152.82 18.7865 152.279 18.7865 151.918 18.9645C151.467 19.2314 151.557 19.4984 151.828 19.7654L153.181 18.9645Z" fill="#2586FD"/>
</g>
<g opacity="0.4">
<path opacity="0.4" d="M114.565 30.2654C114.204 30.0875 113.482 30.1765 112.94 30.5324C112.309 30.8883 112.128 31.3333 112.489 31.5112C112.85 31.6892 113.572 31.6002 114.204 31.2443C114.745 30.8883 114.925 30.4434 114.565 30.2654Z" fill="#2586FD"/>
<path opacity="0.4" d="M110.775 28.1298L110.505 27.9518L108.52 29.1086L108.79 29.2866C109.151 29.5536 109.783 29.5536 110.505 29.1086C111.226 28.6637 111.136 28.3968 110.775 28.1298Z" fill="#2586FD"/>
<path opacity="0.4" d="M138.294 17.8968C136.76 17.0069 134.414 16.9179 133.061 17.7188C132.88 17.8078 132.79 17.8968 132.7 17.9857C132.609 18.0747 132.519 18.1637 132.429 18.2527L131.797 18.9646C131.346 19.4095 130.264 19.4985 129.452 19.1426L127.016 17.8078C126.925 17.8078 126.925 17.7188 126.835 17.7188C126.745 17.6298 126.655 17.6298 126.564 17.5408C120.97 14.2484 116.73 15.2272 116.008 15.2272C115.647 15.2272 116.008 13.0916 112.219 10.867C109.692 9.44321 105.181 8.46438 100.941 10.867L89.5724 17.3629C89.3919 17.4518 89.2115 17.6298 89.031 17.8078C87.4972 18.6086 87.6776 20.1214 89.3919 21.0112L110.414 33.1132C112.038 34.092 114.565 34.181 116.008 33.3801L127.737 26.6173C129.812 25.4605 130.715 23.7698 130.444 22.079L130.715 21.1892C130.985 20.5663 132.249 20.2994 133.331 20.6553L134.324 21.0112C135.767 21.5451 137.662 21.5451 138.835 20.9222C140.008 20.1214 139.827 18.7866 138.294 17.8968Z" fill="#2586FD"/>
</g>
<path d="M131.166 8.37525C130.985 8.46423 130.895 8.55322 130.805 8.6422C130.715 8.73118 130.624 8.82017 130.534 8.90915L129.903 9.62103C129.452 10.066 128.369 10.1549 127.557 9.799L125.121 8.55322C125.031 8.55322 125.031 8.46423 124.94 8.46423C124.85 8.37525 124.76 8.37525 124.67 8.28626C118.985 4.90484 114.745 5.88367 114.023 5.88367C113.662 5.88367 114.023 3.74804 110.234 1.52342C107.707 0.0106796 103.196 -0.968152 99.0459 1.52342L87.5874 8.01931C87.4069 8.19728 87.2265 8.28626 87.046 8.46423C85.5122 9.26509 85.6927 10.7778 87.4069 11.6677L108.429 23.6806C110.053 24.6595 112.58 24.7484 114.023 23.9476L125.752 17.1847C127.827 16.0279 128.73 14.3372 128.459 12.6465L128.73 11.7567C129 11.1338 130.264 10.8668 131.256 11.2228L132.248 11.5787C133.692 12.1126 135.587 12.1126 136.76 11.4897C138.113 10.6888 137.933 9.35408 136.399 8.46423C134.775 7.66337 132.429 7.57438 131.166 8.37525Z" fill="#2586FD"/>
<path d="M99.8585 24.0365C99.9487 24.2145 100.129 24.4815 100.4 24.6594C100.761 24.8374 101.122 24.8374 101.483 24.7484C101.753 24.6594 101.753 24.4815 101.573 24.2145C101.302 23.7696 101.392 23.4136 102.114 23.1467C102.926 22.8797 104.009 22.8797 104.821 23.3247C105.182 23.5026 105.362 23.7696 105.452 23.8586L104.37 24.0365C104.37 23.9476 104.189 23.7696 103.919 23.5916C103.648 23.4136 103.197 23.4136 102.926 23.5026C102.655 23.5916 102.655 23.7696 102.836 24.1255C103.107 24.5704 102.926 24.9264 102.295 25.1933C101.483 25.5493 100.4 25.5493 99.4073 25.0154C99.0464 24.8374 98.7758 24.5704 98.6855 24.3925L99.8585 24.0365Z" fill="white"/>
<path d="M105.903 24.8373L105.001 24.3034L105.903 23.9474L108.429 25.3712L107.527 25.7271L106.625 25.1932L102.835 26.706L102.023 26.2611L105.903 24.8373Z" fill="white"/>
<path d="M109.602 28.2189C108.159 28.8418 106.535 28.9307 105.542 28.3079C104.55 27.7739 104.911 26.9731 106.264 26.4392C107.617 25.8163 109.332 25.7273 110.324 26.3502C111.317 26.8841 110.866 27.596 109.602 28.2189ZM107.076 26.8841C106.174 27.24 105.813 27.685 106.354 28.0409C106.896 28.3079 107.798 28.2189 108.7 27.7739C109.512 27.418 109.963 26.9731 109.422 26.6171C108.971 26.3502 107.978 26.4392 107.076 26.8841Z" fill="white"/>
<path d="M112.218 27.507C112.489 27.596 112.94 27.774 113.301 28.0409C113.752 28.3079 114.023 28.5748 114.023 28.7528C114.023 28.9308 113.843 29.1977 113.391 29.3757C112.85 29.6427 112.128 29.6427 111.677 29.5537C111.767 29.7316 111.587 29.9986 111.316 30.1766C110.955 30.4435 110.504 30.7995 110.324 30.8884L109.512 30.4435C109.602 30.3545 109.873 30.1766 110.324 29.8206C110.775 29.5537 110.775 29.3757 110.504 29.1977L110.234 29.1087L108.61 29.9096L107.797 29.4647L112.218 27.507ZM111.046 28.7528L111.316 28.9308C111.677 29.1087 112.218 29.1087 112.579 28.9308C112.94 28.7528 112.94 28.4859 112.67 28.3079C112.489 28.2189 112.399 28.1299 112.309 28.1299L111.046 28.7528Z" fill="white"/>
<path d="M114.745 31.4223L113.482 30.7104L112.489 31.2443L113.933 32.0452L113.121 32.4011L110.865 31.1553L115.196 29.0197L117.271 30.1765L116.459 30.5325L115.106 29.8206L114.204 30.2655L115.467 30.9774L114.745 31.4223Z" fill="white"/>
</svg>
