<svg width="72" height="40" viewBox="0 0 72 40" fill="none" xmlns="http://www.w3.org/2000/svg">
<g clip-path="url(#clip0)">
<g opacity="0.4">
<path opacity="0.4" d="M36.87 35.9999C37.3125 35.8457 37.7834 35.79 38.2498 35.8366C38.7161 35.8832 39.1667 36.0311 39.57 36.2699C41.11 37.1599 40.47 38.1399 39.3 38.7599L37.23 39.9199C36.9962 40.0109 36.7454 40.05 36.495 40.0345C36.2447 40.0189 36.0007 39.9491 35.78 39.8299L30.37 36.7099C29.92 36.4499 29.92 36.0899 30.28 35.9099L32.08 34.8399C33.08 34.3099 34.7 33.5999 36.23 34.5799C37.05 35.0699 37.23 35.5199 36.87 35.9999ZM33.35 36.2699L34.25 36.7099L34.79 36.3599C35.06 36.1799 35.15 35.9999 34.79 35.8199C34.6473 35.7463 34.4864 35.7156 34.3266 35.7315C34.1669 35.7475 34.0152 35.8095 33.89 35.9099L33.35 36.2699ZM35.69 37.6899L36.69 38.2299L37.33 37.8699C37.69 37.6899 37.69 37.5099 37.42 37.3399C37.2453 37.2644 37.0549 37.2322 36.8651 37.2461C36.6753 37.26 36.4917 37.3197 36.33 37.4199L35.69 37.6899Z" fill="#2586FD"/>
<path opacity="0.4" d="M44.17 33.65L41.56 35.16C42.0042 35.3099 42.4897 35.2775 42.91 35.07C43.18 34.89 43.27 34.8 43.27 34.63C43.296 34.554 43.3442 34.4877 43.4084 34.4395C43.4726 34.3914 43.5498 34.3637 43.63 34.36L44.71 34.18C45.17 34.09 45.62 34.36 45.62 34.63C45.62 35.07 45.26 35.63 44.53 36.05C43.6965 36.4585 42.7753 36.6558 41.8475 36.6244C40.9198 36.593 40.014 36.3339 39.21 35.87C37.5 34.87 37.59 33.65 38.94 32.87C39.7647 32.4752 40.6748 32.2922 41.5879 32.3376C42.5011 32.383 43.3886 32.6553 44.17 33.13C44.2079 33.1619 44.2383 33.2017 44.2592 33.2466C44.2801 33.2915 44.2909 33.3404 44.2909 33.39C44.2909 33.4395 44.2801 33.4884 44.2592 33.5333C44.2383 33.5782 44.2079 33.618 44.17 33.65ZM41.65 33.65C41.4502 33.5609 41.2338 33.5149 41.015 33.5149C40.7962 33.5149 40.5799 33.5609 40.38 33.65C39.93 33.91 40.02 34.18 40.29 34.45L41.65 33.65Z" fill="#2586FD"/>
<path opacity="0.4" d="M49.4098 33.2C48.579 33.6271 47.6522 33.8331 46.7186 33.7981C45.7851 33.7631 44.8763 33.4882 44.0798 33C42.2798 32 42.5498 30.69 43.8998 30C44.7273 29.5761 45.6465 29.3626 46.5761 29.3782C47.5057 29.3939 48.4171 29.6384 49.2298 30.09C50.9398 31.16 50.7598 32.4 49.4098 33.2ZM45.8898 32C46.1337 32.1416 46.4075 32.2235 46.6891 32.2391C46.9706 32.2548 47.2518 32.2037 47.5098 32.09C47.9598 31.82 47.8698 31.46 47.3298 31.2C47.0811 31.0727 46.8084 30.9989 46.5294 30.9834C46.2503 30.9679 45.9712 31.011 45.7098 31.11C45.3498 31.33 45.4398 31.69 45.8898 32Z" fill="#2586FD"/>
<path opacity="0.4" d="M47.4198 28.1299L48.3198 27.5999C48.4897 27.506 48.6832 27.4636 48.8767 27.4778C49.0703 27.492 49.2555 27.5623 49.4098 27.6799C49.2298 27.3299 49.4098 26.8799 49.9498 26.5299C50.5577 26.2548 51.2267 26.1425 51.8911 26.2038C52.5555 26.2652 53.1926 26.4982 53.7398 26.8799L56.2598 28.3999C56.6198 28.5699 56.6198 28.8399 56.3498 29.0199L55.3498 29.5499C55.1802 29.6403 54.9881 29.6799 54.7966 29.6639C54.6051 29.6479 54.4222 29.5771 54.2698 29.4599L52.0998 28.2199C51.5598 27.9499 51.1998 27.8599 50.9298 28.0399C50.6598 28.2199 50.7498 28.3999 51.1998 28.7499L53.3798 29.9999C53.7398 30.1799 53.7398 30.4399 53.4698 30.6199L52.5598 31.1599C52.3902 31.2503 52.1981 31.2899 52.0066 31.2739C51.8151 31.2579 51.6322 31.1871 51.4798 31.0699L47.4198 28.7499C47.3601 28.723 47.3095 28.6795 47.2739 28.6245C47.2384 28.5695 47.2195 28.5054 47.2195 28.4399C47.2195 28.3744 47.2384 28.3104 47.2739 28.2554C47.3095 28.2004 47.3601 28.1568 47.4198 28.1299Z" fill="#2586FD"/>
<path opacity="0.4" d="M50.9399 23.5899C51.2824 23.43 51.6582 23.3548 52.0359 23.3704C52.4135 23.3861 52.7818 23.4922 53.1099 23.6799L58.1099 26.6199C58.7399 26.9699 58.8299 27.5099 58.2899 27.8599C57.9481 28.0222 57.5719 28.0989 57.1938 28.0832C56.8157 28.0675 56.4471 27.96 56.1199 27.7699L51.0699 24.8399C50.3999 24.4799 50.3099 23.8599 50.9399 23.5899Z" fill="#2586FD"/>
<path opacity="0.4" d="M53.38 22.17C53.7042 22.0076 54.0645 21.9306 54.4267 21.9463C54.789 21.9621 55.1412 22.0701 55.45 22.26L58.34 24C58.97 24.35 59.06 24.89 58.52 25.24C58.1941 25.4024 57.8322 25.4793 57.4684 25.4636C57.1046 25.4478 56.7507 25.3399 56.44 25.15L53.56 23.46C52.92 23 52.83 22.52 53.38 22.17Z" fill="#2586FD"/>
<path opacity="0.4" d="M57.5299 22.3499L58.4299 21.8099C58.5995 21.7195 58.7916 21.6799 58.9831 21.6959C59.1747 21.7118 59.3576 21.7827 59.5099 21.8999C59.3299 21.5499 59.5099 21.0999 60.0499 20.7399C60.6586 20.4662 61.3281 20.3555 61.9925 20.4186C62.6569 20.4817 63.2935 20.7165 63.8399 21.0999L66.3699 22.6099C66.7299 22.7899 66.7299 23.0599 66.4599 23.2399L65.4599 23.7699C65.2891 23.8623 65.0951 23.9031 64.9015 23.8871C64.7079 23.8711 64.5232 23.7991 64.3699 23.6799L62.2999 22.3499C61.7599 22.0799 61.3999 21.9899 61.1299 22.1699C60.8599 22.3499 60.9499 22.5199 61.3999 22.8799L63.5599 24.1299C63.9199 24.2999 63.9199 24.5699 63.6499 24.7499L62.6499 25.2799C62.4803 25.3702 62.2882 25.4098 62.0966 25.3938C61.9051 25.3779 61.7222 25.3071 61.5699 25.1899L57.5099 22.8799C57.4594 22.8552 57.4172 22.8164 57.3883 22.7682C57.3595 22.72 57.3453 22.6645 57.3474 22.6084C57.3495 22.5522 57.3679 22.4979 57.4003 22.452C57.4327 22.4061 57.4777 22.3706 57.5299 22.3499Z" fill="#2586FD"/>
<path opacity="0.4" d="M69.62 19L67 20.48C67.4441 20.6299 67.9296 20.5976 68.35 20.39C68.62 20.21 68.71 20.12 68.71 19.94C68.71 19.76 68.9 19.68 69.08 19.68L70.16 19.5C70.61 19.41 71.06 19.68 71.06 19.94C71.0118 20.2462 70.8903 20.5362 70.7057 20.7852C70.5211 21.0343 70.279 21.2349 70 21.37C69.1647 21.7786 68.2419 21.9758 67.3125 21.9444C66.3832 21.913 65.4758 21.654 64.67 21.19C62.96 20.19 63.05 18.96 64.4 18.19C65.2272 17.7967 66.1393 17.6155 67.0541 17.6626C67.9689 17.7097 68.8575 17.9838 69.64 18.46C69.89 18.61 69.89 18.79 69.62 19ZM67.18 19C66.9806 18.9158 66.7664 18.8725 66.55 18.8725C66.3336 18.8725 66.1193 18.9158 65.92 19C65.47 19.27 65.56 19.54 65.83 19.81L67.18 19Z" fill="#2586FD"/>
</g>
<path d="M45.1699 8.38007C45.0319 8.44371 44.9065 8.5318 44.7999 8.64007L44.5299 8.91007L43.8999 9.62007C43.5594 9.85157 43.1644 9.98999 42.7539 10.0216C42.3434 10.0531 41.9318 9.97678 41.5599 9.80007L39.1199 8.55007C39.0299 8.55007 39.0299 8.46007 38.9399 8.46007C38.8499 8.46007 38.7599 8.38007 38.6699 8.29007C35.5109 6.24844 31.7297 5.39441 27.9999 5.88007C27.6399 5.88007 27.9999 3.75007 24.2099 1.52007C22.5144 0.526921 20.5849 0.00341797 18.6199 0.00341797C16.6549 0.00341797 14.7254 0.526921 13.0299 1.52007L1.5899 8.00007C1.4099 8.18007 1.2299 8.27007 1.0499 8.44007C-0.490103 9.25007 -0.310104 10.7601 1.4099 11.6501L22.4099 23.6501C23.2497 24.1407 24.1927 24.4279 25.1633 24.4887C26.134 24.5495 27.1055 24.3821 27.9999 24.0001L39.7299 17.2301C41.8099 16.0801 42.7299 14.3901 42.4399 12.7001L42.7099 11.8101C42.9799 11.1801 44.2399 10.9201 45.2399 11.2701L46.2399 11.6301C47.6992 12.1795 49.3137 12.1473 50.7499 11.5401C52.0999 10.7401 51.9199 9.40007 50.3899 8.54007C49.5881 8.12173 48.7021 7.89005 47.7982 7.86234C46.8943 7.83463 45.9958 8.01162 45.1699 8.38007Z" fill="#2586FD"/>
<path opacity="0.4" d="M29.4799 29.6999L28.9999 29.4099L27.4199 30.2099L27.9599 30.5099C28.1741 30.5916 28.404 30.6242 28.6324 30.6052C28.8609 30.5861 29.0822 30.516 29.2799 30.3999C29.6799 30.1699 29.8099 29.8799 29.4799 29.6999Z" fill="#2586FD"/>
<path opacity="0.4" d="M26.1101 27.8C25.6542 27.6573 25.1737 27.6103 24.6988 27.6619C24.2239 27.7135 23.7647 27.8627 23.3501 28.1C22.3501 28.54 21.8801 29.1 22.5601 29.49C23.0169 29.6378 23.4998 29.6875 23.9772 29.6358C24.4545 29.5841 24.9155 29.4322 25.3301 29.19C26.2501 28.74 26.7601 28.15 26.1101 27.8Z" fill="#2586FD"/>
<path opacity="0.4" d="M52.29 17.9C51.4952 17.4569 50.6062 17.2094 49.6967 17.1781C48.7873 17.1468 47.8834 17.3326 47.06 17.72C46.9245 17.7873 46.8025 17.8788 46.7 17.99L46.43 18.25L45.8 19C45.4584 19.2333 45.0615 19.3728 44.6491 19.4044C44.2366 19.436 43.8231 19.3586 43.45 19.18L41 17.81C40.91 17.81 40.91 17.72 40.81 17.72C40.71 17.72 40.63 17.63 40.54 17.54C37.4046 15.5618 33.6753 14.7445 30 15.23C29.64 15.23 30 13.09 26.21 10.87C24.4839 9.91395 22.5432 9.41235 20.57 9.41235C18.5968 9.41235 16.6561 9.91395 14.93 10.87L3.57 17.36C3.3688 17.4826 3.18683 17.6342 3.03 17.81C1.5 18.61 1.68 20.12 3.39 21.01L24.39 33.11C25.2379 33.588 26.1858 33.8613 27.158 33.9082C28.1303 33.955 29.1 33.7742 29.99 33.38L41.72 26.62C43.79 25.46 44.72 23.77 44.42 22.08L44.69 21.19C44.97 20.57 46.23 20.3 47.31 20.66L48.31 21.01C49.7678 21.5678 51.3856 21.5355 52.82 20.92C54 20.12 53.83 18.79 52.29 17.9ZM14.22 26C13.81 25.77 13.06 25.22 13.85 24.91C14.0079 24.8418 14.178 24.8066 14.35 24.8066C14.522 24.8066 14.6921 24.8418 14.85 24.91C15.1 25.04 15.08 25.34 15.42 25.53C15.6175 25.6214 15.8324 25.6687 16.05 25.6687C16.2676 25.6687 16.4825 25.6214 16.68 25.53C17.68 25.13 15.29 24.4 17.21 23.62C17.7016 23.3971 18.2332 23.276 18.7728 23.2639C19.3125 23.2519 19.849 23.3492 20.35 23.55C20.64 23.71 21.19 24.18 20.56 24.45C20.4064 24.5278 20.2388 24.5741 20.0671 24.5861C19.8953 24.5981 19.7229 24.5757 19.56 24.52C19.35 24.4 19.42 24.2 19.11 24.03C18.9529 23.9587 18.7825 23.9219 18.61 23.9219C18.4375 23.9219 18.2671 23.9587 18.11 24.03C17.27 24.38 19.56 25.12 17.47 26.03C16.954 26.2434 16.4003 26.3507 15.8419 26.3455C15.2836 26.3404 14.732 26.2229 14.22 26ZM18.93 28.53C18.69 28.4 18.74 28.21 19.14 28.04L20.88 27.27L19.21 26.35L17.45 27.11C17.292 27.1777 17.1219 27.2126 16.95 27.2126C16.7781 27.2126 16.608 27.1777 16.45 27.11C16.22 26.99 16.28 26.79 16.69 26.62L21.28 24.62C21.4322 24.5382 21.6001 24.4896 21.7725 24.4776C21.9449 24.4655 22.1179 24.4902 22.28 24.55C22.5 24.68 22.44 24.87 22.04 25.04L20.35 25.79L22 26.7L23.64 26C23.7903 25.9129 23.9586 25.8613 24.1319 25.8492C24.3052 25.8371 24.479 25.8647 24.64 25.93C24.87 26.05 24.81 26.24 24.42 26.42L19.96 28.42C19.8077 28.5148 19.636 28.5739 19.4576 28.593C19.2792 28.612 19.0989 28.5905 18.93 28.53ZM21.48 30C20.39 29.39 20.9 28.4 22.48 27.66C24.06 26.92 26.07 26.72 27.12 27.3C28.17 27.88 27.65 28.89 26.12 29.65C24.59 30.41 22.59 30.6 21.48 30ZM30.04 30.86C29.577 31.1121 29.0627 31.2557 28.5361 31.2799C28.0095 31.3042 27.4842 31.2085 27 31L26.4 30.67L25.16 31.29C25.0089 31.375 24.8408 31.4254 24.6679 31.4375C24.4949 31.4496 24.3215 31.4232 24.16 31.36C23.92 31.23 23.97 31.03 24.35 30.84L28.6 28.74C28.7481 28.6476 28.9162 28.5921 29.0902 28.5781C29.2643 28.5642 29.4391 28.5923 29.6 28.66L30.51 29.16C31.23 29.62 31.09 30.3 30 30.85L30.04 30.86Z" fill="#2586FD"/>
</g>
<defs>
<clipPath id="clip0">
<rect width="71.06" height="40" fill="white"/>
</clipPath>
</defs>
</svg>
